<?xml version="1.0" encoding="utf-8" standalone="no"?>
<!DOCTYPE svg PUBLIC "-//W3C//DTD SVG 1.1//EN"
  "http://www.w3.org/Graphics/SVG/1.1/DTD/svg11.dtd">
<!-- Created with matplotlib (https://matplotlib.org/) -->
<svg height="552.24pt" version="1.1" viewBox="0 0 1105.92 552.24" width="1105.92pt" xmlns="http://www.w3.org/2000/svg" xmlns:xlink="http://www.w3.org/1999/xlink">
 <defs>
  <style type="text/css">
*{stroke-linecap:butt;stroke-linejoin:round;}
  </style>
 </defs>
 <g id="figure_1">
  <g id="patch_1">
   <path d="M 0 552.24 
L 1105.92 552.24 
L 1105.92 0 
L 0 0 
z
" style="fill:#ffffff;"/>
  </g>
  <g id="axes_1">
   <g id="patch_2">
    <path d="M 138.24 491.4936 
L 995.328 491.4936 
L 995.328 66.2688 
L 138.24 66.2688 
z
" style="fill:#ffffff;"/>
   </g>
   <g id="matplotlib.axis_1">
    <g id="xtick_1">
     <g id="line2d_1">
      <path clip-path="url(#p048cd4c463)" d="M 177.198545 491.4936 
L 177.198545 66.2688 
" style="fill:none;stroke:#b0b0b0;stroke-linecap:square;stroke-width:0.8;"/>
     </g>
     <g id="line2d_2">
      <defs>
       <path d="M 0 0 
L 0 3.5 
" id="m1dc4c71bef" style="stroke:#000000;stroke-width:0.8;"/>
      </defs>
      <g>
       <use style="stroke:#000000;stroke-width:0.8;" x="177.198545" xlink:href="#m1dc4c71bef" y="491.4936"/>
      </g>
     </g>
     <g id="text_1">
      <!-- 0.0 -->
      <defs>
       <path d="M 31.78125 66.40625 
Q 24.171875 66.40625 20.328125 58.90625 
Q 16.5 51.421875 16.5 36.375 
Q 16.5 21.390625 20.328125 13.890625 
Q 24.171875 6.390625 31.78125 6.390625 
Q 39.453125 6.390625 43.28125 13.890625 
Q 47.125 21.390625 47.125 36.375 
Q 47.125 51.421875 43.28125 58.90625 
Q 39.453125 66.40625 31.78125 66.40625 
z
M 31.78125 74.21875 
Q 44.046875 74.21875 50.515625 64.515625 
Q 56.984375 54.828125 56.984375 36.375 
Q 56.984375 17.96875 50.515625 8.265625 
Q 44.046875 -1.421875 31.78125 -1.421875 
Q 19.53125 -1.421875 13.0625 8.265625 
Q 6.59375 17.96875 6.59375 36.375 
Q 6.59375 54.828125 13.0625 64.515625 
Q 19.53125 74.21875 31.78125 74.21875 
z
" id="DejaVuSans-48"/>
       <path d="M 10.6875 12.40625 
L 21 12.40625 
L 21 0 
L 10.6875 0 
z
" id="DejaVuSans-46"/>
      </defs>
      <g transform="translate(169.246983 506.092038)scale(0.1 -0.1)">
       <use xlink:href="#DejaVuSans-48"/>
       <use x="63.623047" xlink:href="#DejaVuSans-46"/>
       <use x="95.410156" xlink:href="#DejaVuSans-48"/>
      </g>
     </g>
    </g>
    <g id="xtick_2">
     <g id="line2d_3">
      <path clip-path="url(#p048cd4c463)" d="M 343.421673 491.4936 
L 343.421673 66.2688 
" style="fill:none;stroke:#b0b0b0;stroke-linecap:square;stroke-width:0.8;"/>
     </g>
     <g id="line2d_4">
      <g>
       <use style="stroke:#000000;stroke-width:0.8;" x="343.421673" xlink:href="#m1dc4c71bef" y="491.4936"/>
      </g>
     </g>
     <g id="text_2">
      <!-- 0.2 -->
      <defs>
       <path d="M 19.1875 8.296875 
L 53.609375 8.296875 
L 53.609375 0 
L 7.328125 0 
L 7.328125 8.296875 
Q 12.9375 14.109375 22.625 23.890625 
Q 32.328125 33.6875 34.8125 36.53125 
Q 39.546875 41.84375 41.421875 45.53125 
Q 43.3125 49.21875 43.3125 52.78125 
Q 43.3125 58.59375 39.234375 62.25 
Q 35.15625 65.921875 28.609375 65.921875 
Q 23.96875 65.921875 18.8125 64.3125 
Q 13.671875 62.703125 7.8125 59.421875 
L 7.8125 69.390625 
Q 13.765625 71.78125 18.9375 73 
Q 24.125 74.21875 28.421875 74.21875 
Q 39.75 74.21875 46.484375 68.546875 
Q 53.21875 62.890625 53.21875 53.421875 
Q 53.21875 48.921875 51.53125 44.890625 
Q 49.859375 40.875 45.40625 35.40625 
Q 44.1875 33.984375 37.640625 27.21875 
Q 31.109375 20.453125 19.1875 8.296875 
z
" id="DejaVuSans-50"/>
      </defs>
      <g transform="translate(335.47011 506.092038)scale(0.1 -0.1)">
       <use xlink:href="#DejaVuSans-48"/>
       <use x="63.623047" xlink:href="#DejaVuSans-46"/>
       <use x="95.410156" xlink:href="#DejaVuSans-50"/>
      </g>
     </g>
    </g>
    <g id="xtick_3">
     <g id="line2d_5">
      <path clip-path="url(#p048cd4c463)" d="M 509.6448 491.4936 
L 509.6448 66.2688 
" style="fill:none;stroke:#b0b0b0;stroke-linecap:square;stroke-width:0.8;"/>
     </g>
     <g id="line2d_6">
      <g>
       <use style="stroke:#000000;stroke-width:0.8;" x="509.6448" xlink:href="#m1dc4c71bef" y="491.4936"/>
      </g>
     </g>
     <g id="text_3">
      <!-- 0.4 -->
      <defs>
       <path d="M 37.796875 64.3125 
L 12.890625 25.390625 
L 37.796875 25.390625 
z
M 35.203125 72.90625 
L 47.609375 72.90625 
L 47.609375 25.390625 
L 58.015625 25.390625 
L 58.015625 17.1875 
L 47.609375 17.1875 
L 47.609375 0 
L 37.796875 0 
L 37.796875 17.1875 
L 4.890625 17.1875 
L 4.890625 26.703125 
z
" id="DejaVuSans-52"/>
      </defs>
      <g transform="translate(501.693237 506.092038)scale(0.1 -0.1)">
       <use xlink:href="#DejaVuSans-48"/>
       <use x="63.623047" xlink:href="#DejaVuSans-46"/>
       <use x="95.410156" xlink:href="#DejaVuSans-52"/>
      </g>
     </g>
    </g>
    <g id="xtick_4">
     <g id="line2d_7">
      <path clip-path="url(#p048cd4c463)" d="M 675.867927 491.4936 
L 675.867927 66.2688 
" style="fill:none;stroke:#b0b0b0;stroke-linecap:square;stroke-width:0.8;"/>
     </g>
     <g id="line2d_8">
      <g>
       <use style="stroke:#000000;stroke-width:0.8;" x="675.867927" xlink:href="#m1dc4c71bef" y="491.4936"/>
      </g>
     </g>
     <g id="text_4">
      <!-- 0.6 -->
      <defs>
       <path d="M 33.015625 40.375 
Q 26.375 40.375 22.484375 35.828125 
Q 18.609375 31.296875 18.609375 23.390625 
Q 18.609375 15.53125 22.484375 10.953125 
Q 26.375 6.390625 33.015625 6.390625 
Q 39.65625 6.390625 43.53125 10.953125 
Q 47.40625 15.53125 47.40625 23.390625 
Q 47.40625 31.296875 43.53125 35.828125 
Q 39.65625 40.375 33.015625 40.375 
z
M 52.59375 71.296875 
L 52.59375 62.3125 
Q 48.875 64.0625 45.09375 64.984375 
Q 41.3125 65.921875 37.59375 65.921875 
Q 27.828125 65.921875 22.671875 59.328125 
Q 17.53125 52.734375 16.796875 39.40625 
Q 19.671875 43.65625 24.015625 45.921875 
Q 28.375 48.1875 33.59375 48.1875 
Q 44.578125 48.1875 50.953125 41.515625 
Q 57.328125 34.859375 57.328125 23.390625 
Q 57.328125 12.15625 50.6875 5.359375 
Q 44.046875 -1.421875 33.015625 -1.421875 
Q 20.359375 -1.421875 13.671875 8.265625 
Q 6.984375 17.96875 6.984375 36.375 
Q 6.984375 53.65625 15.1875 63.9375 
Q 23.390625 74.21875 37.203125 74.21875 
Q 40.921875 74.21875 44.703125 73.484375 
Q 48.484375 72.75 52.59375 71.296875 
z
" id="DejaVuSans-54"/>
      </defs>
      <g transform="translate(667.916365 506.092038)scale(0.1 -0.1)">
       <use xlink:href="#DejaVuSans-48"/>
       <use x="63.623047" xlink:href="#DejaVuSans-46"/>
       <use x="95.410156" xlink:href="#DejaVuSans-54"/>
      </g>
     </g>
    </g>
    <g id="xtick_5">
     <g id="line2d_9">
      <path clip-path="url(#p048cd4c463)" d="M 842.091055 491.4936 
L 842.091055 66.2688 
" style="fill:none;stroke:#b0b0b0;stroke-linecap:square;stroke-width:0.8;"/>
     </g>
     <g id="line2d_10">
      <g>
       <use style="stroke:#000000;stroke-width:0.8;" x="842.091055" xlink:href="#m1dc4c71bef" y="491.4936"/>
      </g>
     </g>
     <g id="text_5">
      <!-- 0.8 -->
      <defs>
       <path d="M 31.78125 34.625 
Q 24.75 34.625 20.71875 30.859375 
Q 16.703125 27.09375 16.703125 20.515625 
Q 16.703125 13.921875 20.71875 10.15625 
Q 24.75 6.390625 31.78125 6.390625 
Q 38.8125 6.390625 42.859375 10.171875 
Q 46.921875 13.96875 46.921875 20.515625 
Q 46.921875 27.09375 42.890625 30.859375 
Q 38.875 34.625 31.78125 34.625 
z
M 21.921875 38.8125 
Q 15.578125 40.375 12.03125 44.71875 
Q 8.5 49.078125 8.5 55.328125 
Q 8.5 64.0625 14.71875 69.140625 
Q 20.953125 74.21875 31.78125 74.21875 
Q 42.671875 74.21875 48.875 69.140625 
Q 55.078125 64.0625 55.078125 55.328125 
Q 55.078125 49.078125 51.53125 44.71875 
Q 48 40.375 41.703125 38.8125 
Q 48.828125 37.15625 52.796875 32.3125 
Q 56.78125 27.484375 56.78125 20.515625 
Q 56.78125 9.90625 50.3125 4.234375 
Q 43.84375 -1.421875 31.78125 -1.421875 
Q 19.734375 -1.421875 13.25 4.234375 
Q 6.78125 9.90625 6.78125 20.515625 
Q 6.78125 27.484375 10.78125 32.3125 
Q 14.796875 37.15625 21.921875 38.8125 
z
M 18.3125 54.390625 
Q 18.3125 48.734375 21.84375 45.5625 
Q 25.390625 42.390625 31.78125 42.390625 
Q 38.140625 42.390625 41.71875 45.5625 
Q 45.3125 48.734375 45.3125 54.390625 
Q 45.3125 60.0625 41.71875 63.234375 
Q 38.140625 66.40625 31.78125 66.40625 
Q 25.390625 66.40625 21.84375 63.234375 
Q 18.3125 60.0625 18.3125 54.390625 
z
" id="DejaVuSans-56"/>
      </defs>
      <g transform="translate(834.139492 506.092038)scale(0.1 -0.1)">
       <use xlink:href="#DejaVuSans-48"/>
       <use x="63.623047" xlink:href="#DejaVuSans-46"/>
       <use x="95.410156" xlink:href="#DejaVuSans-56"/>
      </g>
     </g>
    </g>
   </g>
   <g id="matplotlib.axis_2">
    <g id="ytick_1">
     <g id="line2d_11">
      <path clip-path="url(#p048cd4c463)" d="M 138.24 455.426146 
L 995.328 455.426146 
" style="fill:none;stroke:#b0b0b0;stroke-linecap:square;stroke-width:0.8;"/>
     </g>
     <g id="line2d_12">
      <defs>
       <path d="M 0 0 
L -3.5 0 
" id="ma7957f3422" style="stroke:#000000;stroke-width:0.8;"/>
      </defs>
      <g>
       <use style="stroke:#000000;stroke-width:0.8;" x="138.24" xlink:href="#ma7957f3422" y="455.426146"/>
      </g>
     </g>
     <g id="text_6">
      <!-- −3 -->
      <defs>
       <path d="M 10.59375 35.5 
L 73.1875 35.5 
L 73.1875 27.203125 
L 10.59375 27.203125 
z
" id="DejaVuSans-8722"/>
       <path d="M 40.578125 39.3125 
Q 47.65625 37.796875 51.625 33 
Q 55.609375 28.21875 55.609375 21.1875 
Q 55.609375 10.40625 48.1875 4.484375 
Q 40.765625 -1.421875 27.09375 -1.421875 
Q 22.515625 -1.421875 17.65625 -0.515625 
Q 12.796875 0.390625 7.625 2.203125 
L 7.625 11.71875 
Q 11.71875 9.328125 16.59375 8.109375 
Q 21.484375 6.890625 26.8125 6.890625 
Q 36.078125 6.890625 40.9375 10.546875 
Q 45.796875 14.203125 45.796875 21.1875 
Q 45.796875 27.640625 41.28125 31.265625 
Q 36.765625 34.90625 28.71875 34.90625 
L 20.21875 34.90625 
L 20.21875 43.015625 
L 29.109375 43.015625 
Q 36.375 43.015625 40.234375 45.921875 
Q 44.09375 48.828125 44.09375 54.296875 
Q 44.09375 59.90625 40.109375 62.90625 
Q 36.140625 65.921875 28.71875 65.921875 
Q 24.65625 65.921875 20.015625 65.03125 
Q 15.375 64.15625 9.8125 62.3125 
L 9.8125 71.09375 
Q 15.4375 72.65625 20.34375 73.4375 
Q 25.25 74.21875 29.59375 74.21875 
Q 40.828125 74.21875 47.359375 69.109375 
Q 53.90625 64.015625 53.90625 55.328125 
Q 53.90625 49.265625 50.4375 45.09375 
Q 46.96875 40.921875 40.578125 39.3125 
z
" id="DejaVuSans-51"/>
      </defs>
      <g transform="translate(116.497813 459.225364)scale(0.1 -0.1)">
       <use xlink:href="#DejaVuSans-8722"/>
       <use x="83.789062" xlink:href="#DejaVuSans-51"/>
      </g>
     </g>
    </g>
    <g id="ytick_2">
     <g id="line2d_13">
      <path clip-path="url(#p048cd4c463)" d="M 138.24 396.57783 
L 995.328 396.57783 
" style="fill:none;stroke:#b0b0b0;stroke-linecap:square;stroke-width:0.8;"/>
     </g>
     <g id="line2d_14">
      <g>
       <use style="stroke:#000000;stroke-width:0.8;" x="138.24" xlink:href="#ma7957f3422" y="396.57783"/>
      </g>
     </g>
     <g id="text_7">
      <!-- −2 -->
      <g transform="translate(116.497813 400.377049)scale(0.1 -0.1)">
       <use xlink:href="#DejaVuSans-8722"/>
       <use x="83.789062" xlink:href="#DejaVuSans-50"/>
      </g>
     </g>
    </g>
    <g id="ytick_3">
     <g id="line2d_15">
      <path clip-path="url(#p048cd4c463)" d="M 138.24 337.729515 
L 995.328 337.729515 
" style="fill:none;stroke:#b0b0b0;stroke-linecap:square;stroke-width:0.8;"/>
     </g>
     <g id="line2d_16">
      <g>
       <use style="stroke:#000000;stroke-width:0.8;" x="138.24" xlink:href="#ma7957f3422" y="337.729515"/>
      </g>
     </g>
     <g id="text_8">
      <!-- −1 -->
      <defs>
       <path d="M 12.40625 8.296875 
L 28.515625 8.296875 
L 28.515625 63.921875 
L 10.984375 60.40625 
L 10.984375 69.390625 
L 28.421875 72.90625 
L 38.28125 72.90625 
L 38.28125 8.296875 
L 54.390625 8.296875 
L 54.390625 0 
L 12.40625 0 
z
" id="DejaVuSans-49"/>
      </defs>
      <g transform="translate(116.497813 341.528734)scale(0.1 -0.1)">
       <use xlink:href="#DejaVuSans-8722"/>
       <use x="83.789062" xlink:href="#DejaVuSans-49"/>
      </g>
     </g>
    </g>
    <g id="ytick_4">
     <g id="line2d_17">
      <path clip-path="url(#p048cd4c463)" d="M 138.24 278.8812 
L 995.328 278.8812 
" style="fill:none;stroke:#b0b0b0;stroke-linecap:square;stroke-width:0.8;"/>
     </g>
     <g id="line2d_18">
      <g>
       <use style="stroke:#000000;stroke-width:0.8;" x="138.24" xlink:href="#ma7957f3422" y="278.8812"/>
      </g>
     </g>
     <g id="text_9">
      <!-- 0 -->
      <g transform="translate(124.8775 282.680419)scale(0.1 -0.1)">
       <use xlink:href="#DejaVuSans-48"/>
      </g>
     </g>
    </g>
    <g id="ytick_5">
     <g id="line2d_19">
      <path clip-path="url(#p048cd4c463)" d="M 138.24 220.032885 
L 995.328 220.032885 
" style="fill:none;stroke:#b0b0b0;stroke-linecap:square;stroke-width:0.8;"/>
     </g>
     <g id="line2d_20">
      <g>
       <use style="stroke:#000000;stroke-width:0.8;" x="138.24" xlink:href="#ma7957f3422" y="220.032885"/>
      </g>
     </g>
     <g id="text_10">
      <!-- 1 -->
      <g transform="translate(124.8775 223.832104)scale(0.1 -0.1)">
       <use xlink:href="#DejaVuSans-49"/>
      </g>
     </g>
    </g>
    <g id="ytick_6">
     <g id="line2d_21">
      <path clip-path="url(#p048cd4c463)" d="M 138.24 161.18457 
L 995.328 161.18457 
" style="fill:none;stroke:#b0b0b0;stroke-linecap:square;stroke-width:0.8;"/>
     </g>
     <g id="line2d_22">
      <g>
       <use style="stroke:#000000;stroke-width:0.8;" x="138.24" xlink:href="#ma7957f3422" y="161.18457"/>
      </g>
     </g>
     <g id="text_11">
      <!-- 2 -->
      <g transform="translate(124.8775 164.983788)scale(0.1 -0.1)">
       <use xlink:href="#DejaVuSans-50"/>
      </g>
     </g>
    </g>
    <g id="ytick_7">
     <g id="line2d_23">
      <path clip-path="url(#p048cd4c463)" d="M 138.24 102.336254 
L 995.328 102.336254 
" style="fill:none;stroke:#b0b0b0;stroke-linecap:square;stroke-width:0.8;"/>
     </g>
     <g id="line2d_24">
      <g>
       <use style="stroke:#000000;stroke-width:0.8;" x="138.24" xlink:href="#ma7957f3422" y="102.336254"/>
      </g>
     </g>
     <g id="text_12">
      <!-- 3 -->
      <g transform="translate(124.8775 106.135473)scale(0.1 -0.1)">
       <use xlink:href="#DejaVuSans-51"/>
      </g>
     </g>
    </g>
   </g>
   <g id="line2d_25">
    <path clip-path="url(#p048cd4c463)" d="M 177.198545 278.8812 
L 185.068959 278.881199 
L 192.939372 278.881189 
L 200.809785 278.881144 
L 208.680198 278.881025 
L 216.550612 278.880778 
L 224.421025 278.880336 
L 232.291438 278.879619 
L 240.161851 278.878537 
L 248.032264 278.876988 
L 255.902678 278.874862 
L 263.773091 278.872039 
L 271.643504 278.868391 
L 279.513917 278.863785 
L 287.384331 278.85808 
L 295.254744 278.85113 
L 303.125157 278.842784 
L 310.99557 278.832887 
L 318.865983 278.821282 
L 326.736397 278.807809 
L 334.60681 278.792305 
L 342.477223 278.774606 
L 350.347636 278.754549 
L 358.21805 278.731969 
L 366.088463 278.706704 
L 373.958876 278.678591 
L 381.829289 278.64747 
L 389.699702 278.613182 
L 397.570116 278.575574 
L 405.440529 278.534491 
L 413.310942 278.489787 
L 421.181355 278.441316 
L 429.051769 278.38894 
L 436.922182 278.332524 
L 444.792595 278.271939 
L 452.663008 278.207061 
L 460.533421 278.137774 
L 468.403835 278.063965 
L 476.274248 277.985531 
L 484.144661 277.902376 
L 492.015074 277.814407 
L 499.885488 277.721544 
L 507.755901 277.623711 
L 515.626314 277.52084 
L 523.496727 277.412874 
L 531.36714 277.29976 
L 539.237554 277.181457 
L 547.107967 277.05793 
L 554.97838 276.929154 
L 562.848793 276.79511 
L 570.719207 276.655791 
L 578.58962 276.511197 
L 586.460033 276.361336 
L 594.330446 276.206225 
L 602.20086 276.04589 
L 610.071273 275.880366 
L 617.941686 275.709694 
L 625.812099 275.533927 
L 633.682512 275.353122 
L 641.552926 275.167348 
L 649.423339 274.976678 
L 657.293752 274.781196 
L 665.164165 274.580992 
L 673.034579 274.376163 
L 680.904992 274.166812 
L 688.775405 273.953052 
L 696.645818 273.735 
L 704.516231 273.512778 
L 712.386645 273.286516 
L 720.257058 273.056348 
L 728.127471 272.822415 
L 735.997884 272.58486 
L 743.868298 272.343831 
L 751.738711 272.09948 
L 759.609124 271.851964 
L 767.479537 271.601439 
L 775.34995 271.348066 
L 783.220364 271.092008 
L 791.090777 270.833427 
L 798.96119 270.572488 
L 806.831603 270.309354 
L 814.702017 270.04419 
L 822.57243 269.777157 
L 830.442843 269.508416 
L 838.313256 269.238124 
L 846.183669 268.966436 
L 854.054083 268.693503 
L 861.924496 268.419472 
L 869.794909 268.144481 
L 877.665322 267.868666 
L 885.535736 267.592155 
L 893.406149 267.315066 
L 901.276562 267.03751 
L 909.146975 266.759589 
L 917.017388 266.481393 
L 924.887802 266.203003 
L 932.758215 265.924484 
L 940.628628 265.645891 
L 948.499041 265.367263 
L 956.369455 265.088626 
" style="fill:none;stroke:#ff0000;stroke-linecap:square;stroke-width:1.5;"/>
    <defs>
     <path d="M 0 3 
C 0.795609 3 1.55874 2.683901 2.12132 2.12132 
C 2.683901 1.55874 3 0.795609 3 0 
C 3 -0.795609 2.683901 -1.55874 2.12132 -2.12132 
C 1.55874 -2.683901 0.795609 -3 0 -3 
C -0.795609 -3 -1.55874 -2.683901 -2.12132 -2.12132 
C -2.683901 -1.55874 -3 -0.795609 -3 0 
C -3 0.795609 -2.683901 1.55874 -2.12132 2.12132 
C -1.55874 2.683901 -0.795609 3 0 3 
z
" id="m66b2edadc3" style="stroke:#ff0000;"/>
    </defs>
    <g clip-path="url(#p048cd4c463)">
     <use style="fill:#ff0000;stroke:#ff0000;" x="177.198545" xlink:href="#m66b2edadc3" y="278.8812"/>
     <use style="fill:#ff0000;stroke:#ff0000;" x="185.068959" xlink:href="#m66b2edadc3" y="278.881199"/>
     <use style="fill:#ff0000;stroke:#ff0000;" x="192.939372" xlink:href="#m66b2edadc3" y="278.881189"/>
     <use style="fill:#ff0000;stroke:#ff0000;" x="200.809785" xlink:href="#m66b2edadc3" y="278.881144"/>
     <use style="fill:#ff0000;stroke:#ff0000;" x="208.680198" xlink:href="#m66b2edadc3" y="278.881025"/>
     <use style="fill:#ff0000;stroke:#ff0000;" x="216.550612" xlink:href="#m66b2edadc3" y="278.880778"/>
     <use style="fill:#ff0000;stroke:#ff0000;" x="224.421025" xlink:href="#m66b2edadc3" y="278.880336"/>
     <use style="fill:#ff0000;stroke:#ff0000;" x="232.291438" xlink:href="#m66b2edadc3" y="278.879619"/>
     <use style="fill:#ff0000;stroke:#ff0000;" x="240.161851" xlink:href="#m66b2edadc3" y="278.878537"/>
     <use style="fill:#ff0000;stroke:#ff0000;" x="248.032264" xlink:href="#m66b2edadc3" y="278.876988"/>
     <use style="fill:#ff0000;stroke:#ff0000;" x="255.902678" xlink:href="#m66b2edadc3" y="278.874862"/>
     <use style="fill:#ff0000;stroke:#ff0000;" x="263.773091" xlink:href="#m66b2edadc3" y="278.872039"/>
     <use style="fill:#ff0000;stroke:#ff0000;" x="271.643504" xlink:href="#m66b2edadc3" y="278.868391"/>
     <use style="fill:#ff0000;stroke:#ff0000;" x="279.513917" xlink:href="#m66b2edadc3" y="278.863785"/>
     <use style="fill:#ff0000;stroke:#ff0000;" x="287.384331" xlink:href="#m66b2edadc3" y="278.85808"/>
     <use style="fill:#ff0000;stroke:#ff0000;" x="295.254744" xlink:href="#m66b2edadc3" y="278.85113"/>
     <use style="fill:#ff0000;stroke:#ff0000;" x="303.125157" xlink:href="#m66b2edadc3" y="278.842784"/>
     <use style="fill:#ff0000;stroke:#ff0000;" x="310.99557" xlink:href="#m66b2edadc3" y="278.832887"/>
     <use style="fill:#ff0000;stroke:#ff0000;" x="318.865983" xlink:href="#m66b2edadc3" y="278.821282"/>
     <use style="fill:#ff0000;stroke:#ff0000;" x="326.736397" xlink:href="#m66b2edadc3" y="278.807809"/>
     <use style="fill:#ff0000;stroke:#ff0000;" x="334.60681" xlink:href="#m66b2edadc3" y="278.792305"/>
     <use style="fill:#ff0000;stroke:#ff0000;" x="342.477223" xlink:href="#m66b2edadc3" y="278.774606"/>
     <use style="fill:#ff0000;stroke:#ff0000;" x="350.347636" xlink:href="#m66b2edadc3" y="278.754549"/>
     <use style="fill:#ff0000;stroke:#ff0000;" x="358.21805" xlink:href="#m66b2edadc3" y="278.731969"/>
     <use style="fill:#ff0000;stroke:#ff0000;" x="366.088463" xlink:href="#m66b2edadc3" y="278.706704"/>
     <use style="fill:#ff0000;stroke:#ff0000;" x="373.958876" xlink:href="#m66b2edadc3" y="278.678591"/>
     <use style="fill:#ff0000;stroke:#ff0000;" x="381.829289" xlink:href="#m66b2edadc3" y="278.64747"/>
     <use style="fill:#ff0000;stroke:#ff0000;" x="389.699702" xlink:href="#m66b2edadc3" y="278.613182"/>
     <use style="fill:#ff0000;stroke:#ff0000;" x="397.570116" xlink:href="#m66b2edadc3" y="278.575574"/>
     <use style="fill:#ff0000;stroke:#ff0000;" x="405.440529" xlink:href="#m66b2edadc3" y="278.534491"/>
     <use style="fill:#ff0000;stroke:#ff0000;" x="413.310942" xlink:href="#m66b2edadc3" y="278.489787"/>
     <use style="fill:#ff0000;stroke:#ff0000;" x="421.181355" xlink:href="#m66b2edadc3" y="278.441316"/>
     <use style="fill:#ff0000;stroke:#ff0000;" x="429.051769" xlink:href="#m66b2edadc3" y="278.38894"/>
     <use style="fill:#ff0000;stroke:#ff0000;" x="436.922182" xlink:href="#m66b2edadc3" y="278.332524"/>
     <use style="fill:#ff0000;stroke:#ff0000;" x="444.792595" xlink:href="#m66b2edadc3" y="278.271939"/>
     <use style="fill:#ff0000;stroke:#ff0000;" x="452.663008" xlink:href="#m66b2edadc3" y="278.207061"/>
     <use style="fill:#ff0000;stroke:#ff0000;" x="460.533421" xlink:href="#m66b2edadc3" y="278.137774"/>
     <use style="fill:#ff0000;stroke:#ff0000;" x="468.403835" xlink:href="#m66b2edadc3" y="278.063965"/>
     <use style="fill:#ff0000;stroke:#ff0000;" x="476.274248" xlink:href="#m66b2edadc3" y="277.985531"/>
     <use style="fill:#ff0000;stroke:#ff0000;" x="484.144661" xlink:href="#m66b2edadc3" y="277.902376"/>
     <use style="fill:#ff0000;stroke:#ff0000;" x="492.015074" xlink:href="#m66b2edadc3" y="277.814407"/>
     <use style="fill:#ff0000;stroke:#ff0000;" x="499.885488" xlink:href="#m66b2edadc3" y="277.721544"/>
     <use style="fill:#ff0000;stroke:#ff0000;" x="507.755901" xlink:href="#m66b2edadc3" y="277.623711"/>
     <use style="fill:#ff0000;stroke:#ff0000;" x="515.626314" xlink:href="#m66b2edadc3" y="277.52084"/>
     <use style="fill:#ff0000;stroke:#ff0000;" x="523.496727" xlink:href="#m66b2edadc3" y="277.412874"/>
     <use style="fill:#ff0000;stroke:#ff0000;" x="531.36714" xlink:href="#m66b2edadc3" y="277.29976"/>
     <use style="fill:#ff0000;stroke:#ff0000;" x="539.237554" xlink:href="#m66b2edadc3" y="277.181457"/>
     <use style="fill:#ff0000;stroke:#ff0000;" x="547.107967" xlink:href="#m66b2edadc3" y="277.05793"/>
     <use style="fill:#ff0000;stroke:#ff0000;" x="554.97838" xlink:href="#m66b2edadc3" y="276.929154"/>
     <use style="fill:#ff0000;stroke:#ff0000;" x="562.848793" xlink:href="#m66b2edadc3" y="276.79511"/>
     <use style="fill:#ff0000;stroke:#ff0000;" x="570.719207" xlink:href="#m66b2edadc3" y="276.655791"/>
     <use style="fill:#ff0000;stroke:#ff0000;" x="578.58962" xlink:href="#m66b2edadc3" y="276.511197"/>
     <use style="fill:#ff0000;stroke:#ff0000;" x="586.460033" xlink:href="#m66b2edadc3" y="276.361336"/>
     <use style="fill:#ff0000;stroke:#ff0000;" x="594.330446" xlink:href="#m66b2edadc3" y="276.206225"/>
     <use style="fill:#ff0000;stroke:#ff0000;" x="602.20086" xlink:href="#m66b2edadc3" y="276.04589"/>
     <use style="fill:#ff0000;stroke:#ff0000;" x="610.071273" xlink:href="#m66b2edadc3" y="275.880366"/>
     <use style="fill:#ff0000;stroke:#ff0000;" x="617.941686" xlink:href="#m66b2edadc3" y="275.709694"/>
     <use style="fill:#ff0000;stroke:#ff0000;" x="625.812099" xlink:href="#m66b2edadc3" y="275.533927"/>
     <use style="fill:#ff0000;stroke:#ff0000;" x="633.682512" xlink:href="#m66b2edadc3" y="275.353122"/>
     <use style="fill:#ff0000;stroke:#ff0000;" x="641.552926" xlink:href="#m66b2edadc3" y="275.167348"/>
     <use style="fill:#ff0000;stroke:#ff0000;" x="649.423339" xlink:href="#m66b2edadc3" y="274.976678"/>
     <use style="fill:#ff0000;stroke:#ff0000;" x="657.293752" xlink:href="#m66b2edadc3" y="274.781196"/>
     <use style="fill:#ff0000;stroke:#ff0000;" x="665.164165" xlink:href="#m66b2edadc3" y="274.580992"/>
     <use style="fill:#ff0000;stroke:#ff0000;" x="673.034579" xlink:href="#m66b2edadc3" y="274.376163"/>
     <use style="fill:#ff0000;stroke:#ff0000;" x="680.904992" xlink:href="#m66b2edadc3" y="274.166812"/>
     <use style="fill:#ff0000;stroke:#ff0000;" x="688.775405" xlink:href="#m66b2edadc3" y="273.953052"/>
     <use style="fill:#ff0000;stroke:#ff0000;" x="696.645818" xlink:href="#m66b2edadc3" y="273.735"/>
     <use style="fill:#ff0000;stroke:#ff0000;" x="704.516231" xlink:href="#m66b2edadc3" y="273.512778"/>
     <use style="fill:#ff0000;stroke:#ff0000;" x="712.386645" xlink:href="#m66b2edadc3" y="273.286516"/>
     <use style="fill:#ff0000;stroke:#ff0000;" x="720.257058" xlink:href="#m66b2edadc3" y="273.056348"/>
     <use style="fill:#ff0000;stroke:#ff0000;" x="728.127471" xlink:href="#m66b2edadc3" y="272.822415"/>
     <use style="fill:#ff0000;stroke:#ff0000;" x="735.997884" xlink:href="#m66b2edadc3" y="272.58486"/>
     <use style="fill:#ff0000;stroke:#ff0000;" x="743.868298" xlink:href="#m66b2edadc3" y="272.343831"/>
     <use style="fill:#ff0000;stroke:#ff0000;" x="751.738711" xlink:href="#m66b2edadc3" y="272.09948"/>
     <use style="fill:#ff0000;stroke:#ff0000;" x="759.609124" xlink:href="#m66b2edadc3" y="271.851964"/>
     <use style="fill:#ff0000;stroke:#ff0000;" x="767.479537" xlink:href="#m66b2edadc3" y="271.601439"/>
     <use style="fill:#ff0000;stroke:#ff0000;" x="775.34995" xlink:href="#m66b2edadc3" y="271.348066"/>
     <use style="fill:#ff0000;stroke:#ff0000;" x="783.220364" xlink:href="#m66b2edadc3" y="271.092008"/>
     <use style="fill:#ff0000;stroke:#ff0000;" x="791.090777" xlink:href="#m66b2edadc3" y="270.833427"/>
     <use style="fill:#ff0000;stroke:#ff0000;" x="798.96119" xlink:href="#m66b2edadc3" y="270.572488"/>
     <use style="fill:#ff0000;stroke:#ff0000;" x="806.831603" xlink:href="#m66b2edadc3" y="270.309354"/>
     <use style="fill:#ff0000;stroke:#ff0000;" x="814.702017" xlink:href="#m66b2edadc3" y="270.04419"/>
     <use style="fill:#ff0000;stroke:#ff0000;" x="822.57243" xlink:href="#m66b2edadc3" y="269.777157"/>
     <use style="fill:#ff0000;stroke:#ff0000;" x="830.442843" xlink:href="#m66b2edadc3" y="269.508416"/>
     <use style="fill:#ff0000;stroke:#ff0000;" x="838.313256" xlink:href="#m66b2edadc3" y="269.238124"/>
     <use style="fill:#ff0000;stroke:#ff0000;" x="846.183669" xlink:href="#m66b2edadc3" y="268.966436"/>
     <use style="fill:#ff0000;stroke:#ff0000;" x="854.054083" xlink:href="#m66b2edadc3" y="268.693503"/>
     <use style="fill:#ff0000;stroke:#ff0000;" x="861.924496" xlink:href="#m66b2edadc3" y="268.419472"/>
     <use style="fill:#ff0000;stroke:#ff0000;" x="869.794909" xlink:href="#m66b2edadc3" y="268.144481"/>
     <use style="fill:#ff0000;stroke:#ff0000;" x="877.665322" xlink:href="#m66b2edadc3" y="267.868666"/>
     <use style="fill:#ff0000;stroke:#ff0000;" x="885.535736" xlink:href="#m66b2edadc3" y="267.592155"/>
     <use style="fill:#ff0000;stroke:#ff0000;" x="893.406149" xlink:href="#m66b2edadc3" y="267.315066"/>
     <use style="fill:#ff0000;stroke:#ff0000;" x="901.276562" xlink:href="#m66b2edadc3" y="267.03751"/>
     <use style="fill:#ff0000;stroke:#ff0000;" x="909.146975" xlink:href="#m66b2edadc3" y="266.759589"/>
     <use style="fill:#ff0000;stroke:#ff0000;" x="917.017388" xlink:href="#m66b2edadc3" y="266.481393"/>
     <use style="fill:#ff0000;stroke:#ff0000;" x="924.887802" xlink:href="#m66b2edadc3" y="266.203003"/>
     <use style="fill:#ff0000;stroke:#ff0000;" x="932.758215" xlink:href="#m66b2edadc3" y="265.924484"/>
     <use style="fill:#ff0000;stroke:#ff0000;" x="940.628628" xlink:href="#m66b2edadc3" y="265.645891"/>
     <use style="fill:#ff0000;stroke:#ff0000;" x="948.499041" xlink:href="#m66b2edadc3" y="265.367263"/>
     <use style="fill:#ff0000;stroke:#ff0000;" x="956.369455" xlink:href="#m66b2edadc3" y="265.088626"/>
    </g>
   </g>
   <g id="line2d_26">
    <path clip-path="url(#p048cd4c463)" d="M 177.198545 278.8812 
L 185.068959 278.880901 
L 192.939372 278.878847 
L 200.809785 278.87338 
L 208.680198 278.862949 
L 216.550612 278.846108 
L 224.421025 278.821509 
L 232.291438 278.787906 
L 240.161851 278.744148 
L 248.032264 278.689181 
L 255.902678 278.622042 
L 263.773091 278.541857 
L 271.643504 278.447843 
L 279.513917 278.339299 
L 287.384331 278.215611 
L 295.254744 278.076245 
L 303.125157 277.920745 
L 310.99557 277.748734 
L 318.865983 277.559907 
L 326.736397 277.354035 
L 334.60681 277.130955 
L 342.477223 276.890575 
L 350.347636 276.632867 
L 358.21805 276.357868 
L 366.088463 276.065676 
L 373.958876 275.756446 
L 381.829289 275.430392 
L 389.699702 275.087782 
L 397.570116 274.728936 
L 405.440529 274.354224 
L 413.310942 273.964066 
L 421.181355 273.558923 
L 429.051769 273.139305 
L 436.922182 272.70576 
L 444.792595 272.258874 
L 452.663008 271.799273 
L 460.533421 271.327615 
L 468.403835 270.844592 
L 476.274248 270.350924 
L 484.144661 269.847362 
L 492.015074 269.334678 
L 499.885488 268.813672 
L 507.755901 268.285163 
L 515.626314 267.749989 
L 523.496727 267.209005 
L 531.36714 266.663079 
L 539.237554 266.113095 
L 547.107967 265.559943 
L 554.97838 265.004523 
L 562.848793 264.44774 
L 570.719207 263.890502 
L 578.58962 263.333719 
L 586.460033 262.778299 
L 594.330446 262.225147 
L 602.20086 261.675163 
L 610.071273 261.129238 
L 617.941686 260.588253 
L 625.812099 260.053079 
L 633.682512 259.52457 
L 641.552926 259.003564 
L 649.423339 258.490881 
L 657.293752 257.987318 
L 665.164165 257.49365 
L 673.034579 257.010627 
L 680.904992 256.538969 
L 688.775405 256.079368 
L 696.645818 255.632483 
L 704.516231 255.198937 
L 712.386645 254.779319 
L 720.257058 254.374177 
L 728.127471 253.984018 
L 735.997884 253.609307 
L 743.868298 253.250461 
L 751.738711 252.90785 
L 759.609124 252.581796 
L 767.479537 252.272567 
L 775.34995 251.980374 
L 783.220364 251.705375 
L 791.090777 251.447668 
L 798.96119 251.207288 
L 806.831603 250.984208 
L 814.702017 250.778335 
L 822.57243 250.589509 
L 830.442843 250.417497 
L 838.313256 250.261998 
L 846.183669 250.122631 
L 854.054083 249.998943 
L 861.924496 249.8904 
L 869.794909 249.796385 
L 877.665322 249.7162 
L 885.535736 249.649061 
L 893.406149 249.594094 
L 901.276562 249.550337 
L 909.146975 249.516734 
L 917.017388 249.492135 
L 924.887802 249.475293 
L 932.758215 249.464862 
L 940.628628 249.459395 
L 948.499041 249.457341 
L 956.369455 249.457042 
" style="fill:none;stroke:#0000ff;stroke-linecap:square;stroke-width:1.5;"/>
    <defs>
     <path d="M 0 3 
C 0.795609 3 1.55874 2.683901 2.12132 2.12132 
C 2.683901 1.55874 3 0.795609 3 0 
C 3 -0.795609 2.683901 -1.55874 2.12132 -2.12132 
C 1.55874 -2.683901 0.795609 -3 0 -3 
C -0.795609 -3 -1.55874 -2.683901 -2.12132 -2.12132 
C -2.683901 -1.55874 -3 -0.795609 -3 0 
C -3 0.795609 -2.683901 1.55874 -2.12132 2.12132 
C -1.55874 2.683901 -0.795609 3 0 3 
z
" id="m180d60d634" style="stroke:#0000ff;"/>
    </defs>
    <g clip-path="url(#p048cd4c463)">
     <use style="fill:#0000ff;stroke:#0000ff;" x="177.198545" xlink:href="#m180d60d634" y="278.8812"/>
     <use style="fill:#0000ff;stroke:#0000ff;" x="185.068959" xlink:href="#m180d60d634" y="278.880901"/>
     <use style="fill:#0000ff;stroke:#0000ff;" x="192.939372" xlink:href="#m180d60d634" y="278.878847"/>
     <use style="fill:#0000ff;stroke:#0000ff;" x="200.809785" xlink:href="#m180d60d634" y="278.87338"/>
     <use style="fill:#0000ff;stroke:#0000ff;" x="208.680198" xlink:href="#m180d60d634" y="278.862949"/>
     <use style="fill:#0000ff;stroke:#0000ff;" x="216.550612" xlink:href="#m180d60d634" y="278.846108"/>
     <use style="fill:#0000ff;stroke:#0000ff;" x="224.421025" xlink:href="#m180d60d634" y="278.821509"/>
     <use style="fill:#0000ff;stroke:#0000ff;" x="232.291438" xlink:href="#m180d60d634" y="278.787906"/>
     <use style="fill:#0000ff;stroke:#0000ff;" x="240.161851" xlink:href="#m180d60d634" y="278.744148"/>
     <use style="fill:#0000ff;stroke:#0000ff;" x="248.032264" xlink:href="#m180d60d634" y="278.689181"/>
     <use style="fill:#0000ff;stroke:#0000ff;" x="255.902678" xlink:href="#m180d60d634" y="278.622042"/>
     <use style="fill:#0000ff;stroke:#0000ff;" x="263.773091" xlink:href="#m180d60d634" y="278.541857"/>
     <use style="fill:#0000ff;stroke:#0000ff;" x="271.643504" xlink:href="#m180d60d634" y="278.447843"/>
     <use style="fill:#0000ff;stroke:#0000ff;" x="279.513917" xlink:href="#m180d60d634" y="278.339299"/>
     <use style="fill:#0000ff;stroke:#0000ff;" x="287.384331" xlink:href="#m180d60d634" y="278.215611"/>
     <use style="fill:#0000ff;stroke:#0000ff;" x="295.254744" xlink:href="#m180d60d634" y="278.076245"/>
     <use style="fill:#0000ff;stroke:#0000ff;" x="303.125157" xlink:href="#m180d60d634" y="277.920745"/>
     <use style="fill:#0000ff;stroke:#0000ff;" x="310.99557" xlink:href="#m180d60d634" y="277.748734"/>
     <use style="fill:#0000ff;stroke:#0000ff;" x="318.865983" xlink:href="#m180d60d634" y="277.559907"/>
     <use style="fill:#0000ff;stroke:#0000ff;" x="326.736397" xlink:href="#m180d60d634" y="277.354035"/>
     <use style="fill:#0000ff;stroke:#0000ff;" x="334.60681" xlink:href="#m180d60d634" y="277.130955"/>
     <use style="fill:#0000ff;stroke:#0000ff;" x="342.477223" xlink:href="#m180d60d634" y="276.890575"/>
     <use style="fill:#0000ff;stroke:#0000ff;" x="350.347636" xlink:href="#m180d60d634" y="276.632867"/>
     <use style="fill:#0000ff;stroke:#0000ff;" x="358.21805" xlink:href="#m180d60d634" y="276.357868"/>
     <use style="fill:#0000ff;stroke:#0000ff;" x="366.088463" xlink:href="#m180d60d634" y="276.065676"/>
     <use style="fill:#0000ff;stroke:#0000ff;" x="373.958876" xlink:href="#m180d60d634" y="275.756446"/>
     <use style="fill:#0000ff;stroke:#0000ff;" x="381.829289" xlink:href="#m180d60d634" y="275.430392"/>
     <use style="fill:#0000ff;stroke:#0000ff;" x="389.699702" xlink:href="#m180d60d634" y="275.087782"/>
     <use style="fill:#0000ff;stroke:#0000ff;" x="397.570116" xlink:href="#m180d60d634" y="274.728936"/>
     <use style="fill:#0000ff;stroke:#0000ff;" x="405.440529" xlink:href="#m180d60d634" y="274.354224"/>
     <use style="fill:#0000ff;stroke:#0000ff;" x="413.310942" xlink:href="#m180d60d634" y="273.964066"/>
     <use style="fill:#0000ff;stroke:#0000ff;" x="421.181355" xlink:href="#m180d60d634" y="273.558923"/>
     <use style="fill:#0000ff;stroke:#0000ff;" x="429.051769" xlink:href="#m180d60d634" y="273.139305"/>
     <use style="fill:#0000ff;stroke:#0000ff;" x="436.922182" xlink:href="#m180d60d634" y="272.70576"/>
     <use style="fill:#0000ff;stroke:#0000ff;" x="444.792595" xlink:href="#m180d60d634" y="272.258874"/>
     <use style="fill:#0000ff;stroke:#0000ff;" x="452.663008" xlink:href="#m180d60d634" y="271.799273"/>
     <use style="fill:#0000ff;stroke:#0000ff;" x="460.533421" xlink:href="#m180d60d634" y="271.327615"/>
     <use style="fill:#0000ff;stroke:#0000ff;" x="468.403835" xlink:href="#m180d60d634" y="270.844592"/>
     <use style="fill:#0000ff;stroke:#0000ff;" x="476.274248" xlink:href="#m180d60d634" y="270.350924"/>
     <use style="fill:#0000ff;stroke:#0000ff;" x="484.144661" xlink:href="#m180d60d634" y="269.847362"/>
     <use style="fill:#0000ff;stroke:#0000ff;" x="492.015074" xlink:href="#m180d60d634" y="269.334678"/>
     <use style="fill:#0000ff;stroke:#0000ff;" x="499.885488" xlink:href="#m180d60d634" y="268.813672"/>
     <use style="fill:#0000ff;stroke:#0000ff;" x="507.755901" xlink:href="#m180d60d634" y="268.285163"/>
     <use style="fill:#0000ff;stroke:#0000ff;" x="515.626314" xlink:href="#m180d60d634" y="267.749989"/>
     <use style="fill:#0000ff;stroke:#0000ff;" x="523.496727" xlink:href="#m180d60d634" y="267.209005"/>
     <use style="fill:#0000ff;stroke:#0000ff;" x="531.36714" xlink:href="#m180d60d634" y="266.663079"/>
     <use style="fill:#0000ff;stroke:#0000ff;" x="539.237554" xlink:href="#m180d60d634" y="266.113095"/>
     <use style="fill:#0000ff;stroke:#0000ff;" x="547.107967" xlink:href="#m180d60d634" y="265.559943"/>
     <use style="fill:#0000ff;stroke:#0000ff;" x="554.97838" xlink:href="#m180d60d634" y="265.004523"/>
     <use style="fill:#0000ff;stroke:#0000ff;" x="562.848793" xlink:href="#m180d60d634" y="264.44774"/>
     <use style="fill:#0000ff;stroke:#0000ff;" x="570.719207" xlink:href="#m180d60d634" y="263.890502"/>
     <use style="fill:#0000ff;stroke:#0000ff;" x="578.58962" xlink:href="#m180d60d634" y="263.333719"/>
     <use style="fill:#0000ff;stroke:#0000ff;" x="586.460033" xlink:href="#m180d60d634" y="262.778299"/>
     <use style="fill:#0000ff;stroke:#0000ff;" x="594.330446" xlink:href="#m180d60d634" y="262.225147"/>
     <use style="fill:#0000ff;stroke:#0000ff;" x="602.20086" xlink:href="#m180d60d634" y="261.675163"/>
     <use style="fill:#0000ff;stroke:#0000ff;" x="610.071273" xlink:href="#m180d60d634" y="261.129238"/>
     <use style="fill:#0000ff;stroke:#0000ff;" x="617.941686" xlink:href="#m180d60d634" y="260.588253"/>
     <use style="fill:#0000ff;stroke:#0000ff;" x="625.812099" xlink:href="#m180d60d634" y="260.053079"/>
     <use style="fill:#0000ff;stroke:#0000ff;" x="633.682512" xlink:href="#m180d60d634" y="259.52457"/>
     <use style="fill:#0000ff;stroke:#0000ff;" x="641.552926" xlink:href="#m180d60d634" y="259.003564"/>
     <use style="fill:#0000ff;stroke:#0000ff;" x="649.423339" xlink:href="#m180d60d634" y="258.490881"/>
     <use style="fill:#0000ff;stroke:#0000ff;" x="657.293752" xlink:href="#m180d60d634" y="257.987318"/>
     <use style="fill:#0000ff;stroke:#0000ff;" x="665.164165" xlink:href="#m180d60d634" y="257.49365"/>
     <use style="fill:#0000ff;stroke:#0000ff;" x="673.034579" xlink:href="#m180d60d634" y="257.010627"/>
     <use style="fill:#0000ff;stroke:#0000ff;" x="680.904992" xlink:href="#m180d60d634" y="256.538969"/>
     <use style="fill:#0000ff;stroke:#0000ff;" x="688.775405" xlink:href="#m180d60d634" y="256.079368"/>
     <use style="fill:#0000ff;stroke:#0000ff;" x="696.645818" xlink:href="#m180d60d634" y="255.632483"/>
     <use style="fill:#0000ff;stroke:#0000ff;" x="704.516231" xlink:href="#m180d60d634" y="255.198937"/>
     <use style="fill:#0000ff;stroke:#0000ff;" x="712.386645" xlink:href="#m180d60d634" y="254.779319"/>
     <use style="fill:#0000ff;stroke:#0000ff;" x="720.257058" xlink:href="#m180d60d634" y="254.374177"/>
     <use style="fill:#0000ff;stroke:#0000ff;" x="728.127471" xlink:href="#m180d60d634" y="253.984018"/>
     <use style="fill:#0000ff;stroke:#0000ff;" x="735.997884" xlink:href="#m180d60d634" y="253.609307"/>
     <use style="fill:#0000ff;stroke:#0000ff;" x="743.868298" xlink:href="#m180d60d634" y="253.250461"/>
     <use style="fill:#0000ff;stroke:#0000ff;" x="751.738711" xlink:href="#m180d60d634" y="252.90785"/>
     <use style="fill:#0000ff;stroke:#0000ff;" x="759.609124" xlink:href="#m180d60d634" y="252.581796"/>
     <use style="fill:#0000ff;stroke:#0000ff;" x="767.479537" xlink:href="#m180d60d634" y="252.272567"/>
     <use style="fill:#0000ff;stroke:#0000ff;" x="775.34995" xlink:href="#m180d60d634" y="251.980374"/>
     <use style="fill:#0000ff;stroke:#0000ff;" x="783.220364" xlink:href="#m180d60d634" y="251.705375"/>
     <use style="fill:#0000ff;stroke:#0000ff;" x="791.090777" xlink:href="#m180d60d634" y="251.447668"/>
     <use style="fill:#0000ff;stroke:#0000ff;" x="798.96119" xlink:href="#m180d60d634" y="251.207288"/>
     <use style="fill:#0000ff;stroke:#0000ff;" x="806.831603" xlink:href="#m180d60d634" y="250.984208"/>
     <use style="fill:#0000ff;stroke:#0000ff;" x="814.702017" xlink:href="#m180d60d634" y="250.778335"/>
     <use style="fill:#0000ff;stroke:#0000ff;" x="822.57243" xlink:href="#m180d60d634" y="250.589509"/>
     <use style="fill:#0000ff;stroke:#0000ff;" x="830.442843" xlink:href="#m180d60d634" y="250.417497"/>
     <use style="fill:#0000ff;stroke:#0000ff;" x="838.313256" xlink:href="#m180d60d634" y="250.261998"/>
     <use style="fill:#0000ff;stroke:#0000ff;" x="846.183669" xlink:href="#m180d60d634" y="250.122631"/>
     <use style="fill:#0000ff;stroke:#0000ff;" x="854.054083" xlink:href="#m180d60d634" y="249.998943"/>
     <use style="fill:#0000ff;stroke:#0000ff;" x="861.924496" xlink:href="#m180d60d634" y="249.8904"/>
     <use style="fill:#0000ff;stroke:#0000ff;" x="869.794909" xlink:href="#m180d60d634" y="249.796385"/>
     <use style="fill:#0000ff;stroke:#0000ff;" x="877.665322" xlink:href="#m180d60d634" y="249.7162"/>
     <use style="fill:#0000ff;stroke:#0000ff;" x="885.535736" xlink:href="#m180d60d634" y="249.649061"/>
     <use style="fill:#0000ff;stroke:#0000ff;" x="893.406149" xlink:href="#m180d60d634" y="249.594094"/>
     <use style="fill:#0000ff;stroke:#0000ff;" x="901.276562" xlink:href="#m180d60d634" y="249.550337"/>
     <use style="fill:#0000ff;stroke:#0000ff;" x="909.146975" xlink:href="#m180d60d634" y="249.516734"/>
     <use style="fill:#0000ff;stroke:#0000ff;" x="917.017388" xlink:href="#m180d60d634" y="249.492135"/>
     <use style="fill:#0000ff;stroke:#0000ff;" x="924.887802" xlink:href="#m180d60d634" y="249.475293"/>
     <use style="fill:#0000ff;stroke:#0000ff;" x="932.758215" xlink:href="#m180d60d634" y="249.464862"/>
     <use style="fill:#0000ff;stroke:#0000ff;" x="940.628628" xlink:href="#m180d60d634" y="249.459395"/>
     <use style="fill:#0000ff;stroke:#0000ff;" x="948.499041" xlink:href="#m180d60d634" y="249.457341"/>
     <use style="fill:#0000ff;stroke:#0000ff;" x="956.369455" xlink:href="#m180d60d634" y="249.457042"/>
    </g>
   </g>
   <g id="line2d_27">
    <path clip-path="url(#p048cd4c463)" d="M 177.198545 278.8812 
L 185.068959 278.787062 
L 192.939372 278.512293 
L 200.809785 278.068186 
L 208.680198 277.465796 
L 216.550612 276.715945 
L 224.421025 275.82922 
L 232.291438 274.815971 
L 240.161851 273.686314 
L 248.032264 272.450129 
L 255.902678 271.117062 
L 263.773091 269.696522 
L 271.643504 268.197683 
L 279.513917 266.629486 
L 287.384331 265.000634 
L 295.254744 263.319597 
L 303.125157 261.594608 
L 310.99557 259.833665 
L 318.865983 258.044531 
L 326.736397 256.234735 
L 334.60681 254.411569 
L 342.477223 252.582091 
L 350.347636 250.753123 
L 358.21805 248.931251 
L 366.088463 247.122827 
L 373.958876 245.333968 
L 381.829289 243.570555 
L 389.699702 241.838233 
L 397.570116 240.142415 
L 405.440529 238.488274 
L 413.310942 236.880751 
L 421.181355 235.324552 
L 429.051769 233.824145 
L 436.922182 232.383766 
L 444.792595 231.007413 
L 452.663008 229.69885 
L 460.533421 228.461607 
L 468.403835 227.298976 
L 476.274248 226.214016 
L 484.144661 225.209549 
L 492.015074 224.288164 
L 499.885488 223.452213 
L 507.755901 222.703814 
L 515.626314 222.044847 
L 523.496727 221.47696 
L 531.36714 221.001565 
L 539.237554 220.619837 
L 547.107967 220.332718 
L 554.97838 220.140913 
L 562.848793 220.044893 
L 570.719207 220.044893 
L 578.58962 220.140913 
L 586.460033 220.332718 
L 594.330446 220.619837 
L 602.20086 221.001565 
L 610.071273 221.47696 
L 617.941686 222.044847 
L 625.812099 222.703814 
L 633.682512 223.452213 
L 641.552926 224.288164 
L 649.423339 225.209549 
L 657.293752 226.214016 
L 665.164165 227.298976 
L 673.034579 228.461607 
L 680.904992 229.69885 
L 688.775405 231.007413 
L 696.645818 232.383766 
L 704.516231 233.824145 
L 712.386645 235.324552 
L 720.257058 236.880751 
L 728.127471 238.488274 
L 735.997884 240.142415 
L 743.868298 241.838233 
L 751.738711 243.570555 
L 759.609124 245.333968 
L 767.479537 247.122827 
L 775.34995 248.931251 
L 783.220364 250.753123 
L 791.090777 252.582091 
L 798.96119 254.411569 
L 806.831603 256.234735 
L 814.702017 258.044531 
L 822.57243 259.833665 
L 830.442843 261.594608 
L 838.313256 263.319597 
L 846.183669 265.000634 
L 854.054083 266.629486 
L 861.924496 268.197683 
L 869.794909 269.696522 
L 877.665322 271.117062 
L 885.535736 272.450129 
L 893.406149 273.686314 
L 901.276562 274.815971 
L 909.146975 275.82922 
L 917.017388 276.715945 
L 924.887802 277.465796 
L 932.758215 278.068186 
L 940.628628 278.512293 
L 948.499041 278.787062 
L 956.369455 278.8812 
" style="fill:none;stroke:#008000;stroke-linecap:square;stroke-width:1.5;"/>
    <defs>
     <path d="M 0 3 
C 0.795609 3 1.55874 2.683901 2.12132 2.12132 
C 2.683901 1.55874 3 0.795609 3 0 
C 3 -0.795609 2.683901 -1.55874 2.12132 -2.12132 
C 1.55874 -2.683901 0.795609 -3 0 -3 
C -0.795609 -3 -1.55874 -2.683901 -2.12132 -2.12132 
C -2.683901 -1.55874 -3 -0.795609 -3 0 
C -3 0.795609 -2.683901 1.55874 -2.12132 2.12132 
C -1.55874 2.683901 -0.795609 3 0 3 
z
" id="maef6d62be3" style="stroke:#008000;"/>
    </defs>
    <g clip-path="url(#p048cd4c463)">
     <use style="fill:#008000;stroke:#008000;" x="177.198545" xlink:href="#maef6d62be3" y="278.8812"/>
     <use style="fill:#008000;stroke:#008000;" x="185.068959" xlink:href="#maef6d62be3" y="278.787062"/>
     <use style="fill:#008000;stroke:#008000;" x="192.939372" xlink:href="#maef6d62be3" y="278.512293"/>
     <use style="fill:#008000;stroke:#008000;" x="200.809785" xlink:href="#maef6d62be3" y="278.068186"/>
     <use style="fill:#008000;stroke:#008000;" x="208.680198" xlink:href="#maef6d62be3" y="277.465796"/>
     <use style="fill:#008000;stroke:#008000;" x="216.550612" xlink:href="#maef6d62be3" y="276.715945"/>
     <use style="fill:#008000;stroke:#008000;" x="224.421025" xlink:href="#maef6d62be3" y="275.82922"/>
     <use style="fill:#008000;stroke:#008000;" x="232.291438" xlink:href="#maef6d62be3" y="274.815971"/>
     <use style="fill:#008000;stroke:#008000;" x="240.161851" xlink:href="#maef6d62be3" y="273.686314"/>
     <use style="fill:#008000;stroke:#008000;" x="248.032264" xlink:href="#maef6d62be3" y="272.450129"/>
     <use style="fill:#008000;stroke:#008000;" x="255.902678" xlink:href="#maef6d62be3" y="271.117062"/>
     <use style="fill:#008000;stroke:#008000;" x="263.773091" xlink:href="#maef6d62be3" y="269.696522"/>
     <use style="fill:#008000;stroke:#008000;" x="271.643504" xlink:href="#maef6d62be3" y="268.197683"/>
     <use style="fill:#008000;stroke:#008000;" x="279.513917" xlink:href="#maef6d62be3" y="266.629486"/>
     <use style="fill:#008000;stroke:#008000;" x="287.384331" xlink:href="#maef6d62be3" y="265.000634"/>
     <use style="fill:#008000;stroke:#008000;" x="295.254744" xlink:href="#maef6d62be3" y="263.319597"/>
     <use style="fill:#008000;stroke:#008000;" x="303.125157" xlink:href="#maef6d62be3" y="261.594608"/>
     <use style="fill:#008000;stroke:#008000;" x="310.99557" xlink:href="#maef6d62be3" y="259.833665"/>
     <use style="fill:#008000;stroke:#008000;" x="318.865983" xlink:href="#maef6d62be3" y="258.044531"/>
     <use style="fill:#008000;stroke:#008000;" x="326.736397" xlink:href="#maef6d62be3" y="256.234735"/>
     <use style="fill:#008000;stroke:#008000;" x="334.60681" xlink:href="#maef6d62be3" y="254.411569"/>
     <use style="fill:#008000;stroke:#008000;" x="342.477223" xlink:href="#maef6d62be3" y="252.582091"/>
     <use style="fill:#008000;stroke:#008000;" x="350.347636" xlink:href="#maef6d62be3" y="250.753123"/>
     <use style="fill:#008000;stroke:#008000;" x="358.21805" xlink:href="#maef6d62be3" y="248.931251"/>
     <use style="fill:#008000;stroke:#008000;" x="366.088463" xlink:href="#maef6d62be3" y="247.122827"/>
     <use style="fill:#008000;stroke:#008000;" x="373.958876" xlink:href="#maef6d62be3" y="245.333968"/>
     <use style="fill:#008000;stroke:#008000;" x="381.829289" xlink:href="#maef6d62be3" y="243.570555"/>
     <use style="fill:#008000;stroke:#008000;" x="389.699702" xlink:href="#maef6d62be3" y="241.838233"/>
     <use style="fill:#008000;stroke:#008000;" x="397.570116" xlink:href="#maef6d62be3" y="240.142415"/>
     <use style="fill:#008000;stroke:#008000;" x="405.440529" xlink:href="#maef6d62be3" y="238.488274"/>
     <use style="fill:#008000;stroke:#008000;" x="413.310942" xlink:href="#maef6d62be3" y="236.880751"/>
     <use style="fill:#008000;stroke:#008000;" x="421.181355" xlink:href="#maef6d62be3" y="235.324552"/>
     <use style="fill:#008000;stroke:#008000;" x="429.051769" xlink:href="#maef6d62be3" y="233.824145"/>
     <use style="fill:#008000;stroke:#008000;" x="436.922182" xlink:href="#maef6d62be3" y="232.383766"/>
     <use style="fill:#008000;stroke:#008000;" x="444.792595" xlink:href="#maef6d62be3" y="231.007413"/>
     <use style="fill:#008000;stroke:#008000;" x="452.663008" xlink:href="#maef6d62be3" y="229.69885"/>
     <use style="fill:#008000;stroke:#008000;" x="460.533421" xlink:href="#maef6d62be3" y="228.461607"/>
     <use style="fill:#008000;stroke:#008000;" x="468.403835" xlink:href="#maef6d62be3" y="227.298976"/>
     <use style="fill:#008000;stroke:#008000;" x="476.274248" xlink:href="#maef6d62be3" y="226.214016"/>
     <use style="fill:#008000;stroke:#008000;" x="484.144661" xlink:href="#maef6d62be3" y="225.209549"/>
     <use style="fill:#008000;stroke:#008000;" x="492.015074" xlink:href="#maef6d62be3" y="224.288164"/>
     <use style="fill:#008000;stroke:#008000;" x="499.885488" xlink:href="#maef6d62be3" y="223.452213"/>
     <use style="fill:#008000;stroke:#008000;" x="507.755901" xlink:href="#maef6d62be3" y="222.703814"/>
     <use style="fill:#008000;stroke:#008000;" x="515.626314" xlink:href="#maef6d62be3" y="222.044847"/>
     <use style="fill:#008000;stroke:#008000;" x="523.496727" xlink:href="#maef6d62be3" y="221.47696"/>
     <use style="fill:#008000;stroke:#008000;" x="531.36714" xlink:href="#maef6d62be3" y="221.001565"/>
     <use style="fill:#008000;stroke:#008000;" x="539.237554" xlink:href="#maef6d62be3" y="220.619837"/>
     <use style="fill:#008000;stroke:#008000;" x="547.107967" xlink:href="#maef6d62be3" y="220.332718"/>
     <use style="fill:#008000;stroke:#008000;" x="554.97838" xlink:href="#maef6d62be3" y="220.140913"/>
     <use style="fill:#008000;stroke:#008000;" x="562.848793" xlink:href="#maef6d62be3" y="220.044893"/>
     <use style="fill:#008000;stroke:#008000;" x="570.719207" xlink:href="#maef6d62be3" y="220.044893"/>
     <use style="fill:#008000;stroke:#008000;" x="578.58962" xlink:href="#maef6d62be3" y="220.140913"/>
     <use style="fill:#008000;stroke:#008000;" x="586.460033" xlink:href="#maef6d62be3" y="220.332718"/>
     <use style="fill:#008000;stroke:#008000;" x="594.330446" xlink:href="#maef6d62be3" y="220.619837"/>
     <use style="fill:#008000;stroke:#008000;" x="602.20086" xlink:href="#maef6d62be3" y="221.001565"/>
     <use style="fill:#008000;stroke:#008000;" x="610.071273" xlink:href="#maef6d62be3" y="221.47696"/>
     <use style="fill:#008000;stroke:#008000;" x="617.941686" xlink:href="#maef6d62be3" y="222.044847"/>
     <use style="fill:#008000;stroke:#008000;" x="625.812099" xlink:href="#maef6d62be3" y="222.703814"/>
     <use style="fill:#008000;stroke:#008000;" x="633.682512" xlink:href="#maef6d62be3" y="223.452213"/>
     <use style="fill:#008000;stroke:#008000;" x="641.552926" xlink:href="#maef6d62be3" y="224.288164"/>
     <use style="fill:#008000;stroke:#008000;" x="649.423339" xlink:href="#maef6d62be3" y="225.209549"/>
     <use style="fill:#008000;stroke:#008000;" x="657.293752" xlink:href="#maef6d62be3" y="226.214016"/>
     <use style="fill:#008000;stroke:#008000;" x="665.164165" xlink:href="#maef6d62be3" y="227.298976"/>
     <use style="fill:#008000;stroke:#008000;" x="673.034579" xlink:href="#maef6d62be3" y="228.461607"/>
     <use style="fill:#008000;stroke:#008000;" x="680.904992" xlink:href="#maef6d62be3" y="229.69885"/>
     <use style="fill:#008000;stroke:#008000;" x="688.775405" xlink:href="#maef6d62be3" y="231.007413"/>
     <use style="fill:#008000;stroke:#008000;" x="696.645818" xlink:href="#maef6d62be3" y="232.383766"/>
     <use style="fill:#008000;stroke:#008000;" x="704.516231" xlink:href="#maef6d62be3" y="233.824145"/>
     <use style="fill:#008000;stroke:#008000;" x="712.386645" xlink:href="#maef6d62be3" y="235.324552"/>
     <use style="fill:#008000;stroke:#008000;" x="720.257058" xlink:href="#maef6d62be3" y="236.880751"/>
     <use style="fill:#008000;stroke:#008000;" x="728.127471" xlink:href="#maef6d62be3" y="238.488274"/>
     <use style="fill:#008000;stroke:#008000;" x="735.997884" xlink:href="#maef6d62be3" y="240.142415"/>
     <use style="fill:#008000;stroke:#008000;" x="743.868298" xlink:href="#maef6d62be3" y="241.838233"/>
     <use style="fill:#008000;stroke:#008000;" x="751.738711" xlink:href="#maef6d62be3" y="243.570555"/>
     <use style="fill:#008000;stroke:#008000;" x="759.609124" xlink:href="#maef6d62be3" y="245.333968"/>
     <use style="fill:#008000;stroke:#008000;" x="767.479537" xlink:href="#maef6d62be3" y="247.122827"/>
     <use style="fill:#008000;stroke:#008000;" x="775.34995" xlink:href="#maef6d62be3" y="248.931251"/>
     <use style="fill:#008000;stroke:#008000;" x="783.220364" xlink:href="#maef6d62be3" y="250.753123"/>
     <use style="fill:#008000;stroke:#008000;" x="791.090777" xlink:href="#maef6d62be3" y="252.582091"/>
     <use style="fill:#008000;stroke:#008000;" x="798.96119" xlink:href="#maef6d62be3" y="254.411569"/>
     <use style="fill:#008000;stroke:#008000;" x="806.831603" xlink:href="#maef6d62be3" y="256.234735"/>
     <use style="fill:#008000;stroke:#008000;" x="814.702017" xlink:href="#maef6d62be3" y="258.044531"/>
     <use style="fill:#008000;stroke:#008000;" x="822.57243" xlink:href="#maef6d62be3" y="259.833665"/>
     <use style="fill:#008000;stroke:#008000;" x="830.442843" xlink:href="#maef6d62be3" y="261.594608"/>
     <use style="fill:#008000;stroke:#008000;" x="838.313256" xlink:href="#maef6d62be3" y="263.319597"/>
     <use style="fill:#008000;stroke:#008000;" x="846.183669" xlink:href="#maef6d62be3" y="265.000634"/>
     <use style="fill:#008000;stroke:#008000;" x="854.054083" xlink:href="#maef6d62be3" y="266.629486"/>
     <use style="fill:#008000;stroke:#008000;" x="861.924496" xlink:href="#maef6d62be3" y="268.197683"/>
     <use style="fill:#008000;stroke:#008000;" x="869.794909" xlink:href="#maef6d62be3" y="269.696522"/>
     <use style="fill:#008000;stroke:#008000;" x="877.665322" xlink:href="#maef6d62be3" y="271.117062"/>
     <use style="fill:#008000;stroke:#008000;" x="885.535736" xlink:href="#maef6d62be3" y="272.450129"/>
     <use style="fill:#008000;stroke:#008000;" x="893.406149" xlink:href="#maef6d62be3" y="273.686314"/>
     <use style="fill:#008000;stroke:#008000;" x="901.276562" xlink:href="#maef6d62be3" y="274.815971"/>
     <use style="fill:#008000;stroke:#008000;" x="909.146975" xlink:href="#maef6d62be3" y="275.82922"/>
     <use style="fill:#008000;stroke:#008000;" x="917.017388" xlink:href="#maef6d62be3" y="276.715945"/>
     <use style="fill:#008000;stroke:#008000;" x="924.887802" xlink:href="#maef6d62be3" y="277.465796"/>
     <use style="fill:#008000;stroke:#008000;" x="932.758215" xlink:href="#maef6d62be3" y="278.068186"/>
     <use style="fill:#008000;stroke:#008000;" x="940.628628" xlink:href="#maef6d62be3" y="278.512293"/>
     <use style="fill:#008000;stroke:#008000;" x="948.499041" xlink:href="#maef6d62be3" y="278.787062"/>
     <use style="fill:#008000;stroke:#008000;" x="956.369455" xlink:href="#maef6d62be3" y="278.8812"/>
    </g>
   </g>
   <g id="line2d_28">
    <path clip-path="url(#p048cd4c463)" d="M 177.198545 278.8812 
L 185.068959 259.202112 
L 192.939372 240.727867 
L 200.809785 223.433621 
L 208.680198 207.294533 
L 216.550612 192.285761 
L 224.421025 178.382463 
L 232.291438 165.559796 
L 240.161851 153.792919 
L 248.032264 143.056989 
L 255.902678 133.327165 
L 263.773091 124.578604 
L 271.643504 116.786463 
L 279.513917 109.925902 
L 287.384331 103.972077 
L 295.254744 98.900147 
L 303.125157 94.68527 
L 310.99557 91.302604 
L 318.865983 88.727305 
L 326.736397 86.934533 
L 334.60681 85.899446 
L 342.477223 85.5972 
L 350.347636 86.002954 
L 358.21805 87.091867 
L 366.088463 88.839095 
L 373.958876 91.219796 
L 381.829289 94.20913 
L 389.699702 97.782253 
L 397.570116 101.914323 
L 405.440529 106.580498 
L 413.310942 111.755937 
L 421.181355 117.415796 
L 429.051769 123.535235 
L 436.922182 130.089411 
L 444.792595 137.053481 
L 452.663008 144.402604 
L 460.533421 152.111937 
L 468.403835 160.156639 
L 476.274248 168.511867 
L 484.144661 177.152779 
L 492.015074 186.054533 
L 499.885488 195.192288 
L 507.755901 204.5412 
L 515.626314 214.076428 
L 523.496727 223.77313 
L 531.36714 233.606463 
L 539.237554 243.551586 
L 547.107967 253.583656 
L 554.97838 263.677832 
L 562.848793 273.80927 
L 570.719207 283.95313 
L 578.58962 294.084568 
L 586.460033 304.178744 
L 594.330446 314.210814 
L 602.20086 324.155937 
L 610.071273 333.98927 
L 617.941686 343.685972 
L 625.812099 353.2212 
L 633.682512 362.570112 
L 641.552926 371.707867 
L 649.423339 380.609621 
L 657.293752 389.250533 
L 665.164165 397.605761 
L 673.034579 405.650463 
L 680.904992 413.359796 
L 688.775405 420.708919 
L 696.645818 427.672989 
L 704.516231 434.227165 
L 712.386645 440.346604 
L 720.257058 446.006463 
L 728.127471 451.181902 
L 735.997884 455.848077 
L 743.868298 459.980147 
L 751.738711 463.55327 
L 759.609124 466.542604 
L 767.479537 468.923305 
L 775.34995 470.670533 
L 783.220364 471.759446 
L 791.090777 472.1652 
L 798.96119 471.862954 
L 806.831603 470.827867 
L 814.702017 469.035095 
L 822.57243 466.459796 
L 830.442843 463.07713 
L 838.313256 458.862253 
L 846.183669 453.790323 
L 854.054083 447.836498 
L 861.924496 440.975937 
L 869.794909 433.183796 
L 877.665322 424.435235 
L 885.535736 414.705411 
L 893.406149 403.969481 
L 901.276562 392.202604 
L 909.146975 379.379937 
L 917.017388 365.476639 
L 924.887802 350.467867 
L 932.758215 334.328779 
L 940.628628 317.034533 
L 948.499041 298.560288 
L 956.369455 278.8812 
" style="fill:none;stroke:#ffa500;stroke-linecap:square;stroke-width:1.5;"/>
    <defs>
     <path d="M 0 3 
C 0.795609 3 1.55874 2.683901 2.12132 2.12132 
C 2.683901 1.55874 3 0.795609 3 0 
C 3 -0.795609 2.683901 -1.55874 2.12132 -2.12132 
C 1.55874 -2.683901 0.795609 -3 0 -3 
C -0.795609 -3 -1.55874 -2.683901 -2.12132 -2.12132 
C -2.683901 -1.55874 -3 -0.795609 -3 0 
C -3 0.795609 -2.683901 1.55874 -2.12132 2.12132 
C -1.55874 2.683901 -0.795609 3 0 3 
z
" id="me7c0a74854" style="stroke:#ffa500;"/>
    </defs>
    <g clip-path="url(#p048cd4c463)">
     <use style="fill:#ffa500;stroke:#ffa500;" x="177.198545" xlink:href="#me7c0a74854" y="278.8812"/>
     <use style="fill:#ffa500;stroke:#ffa500;" x="185.068959" xlink:href="#me7c0a74854" y="259.202112"/>
     <use style="fill:#ffa500;stroke:#ffa500;" x="192.939372" xlink:href="#me7c0a74854" y="240.727867"/>
     <use style="fill:#ffa500;stroke:#ffa500;" x="200.809785" xlink:href="#me7c0a74854" y="223.433621"/>
     <use style="fill:#ffa500;stroke:#ffa500;" x="208.680198" xlink:href="#me7c0a74854" y="207.294533"/>
     <use style="fill:#ffa500;stroke:#ffa500;" x="216.550612" xlink:href="#me7c0a74854" y="192.285761"/>
     <use style="fill:#ffa500;stroke:#ffa500;" x="224.421025" xlink:href="#me7c0a74854" y="178.382463"/>
     <use style="fill:#ffa500;stroke:#ffa500;" x="232.291438" xlink:href="#me7c0a74854" y="165.559796"/>
     <use style="fill:#ffa500;stroke:#ffa500;" x="240.161851" xlink:href="#me7c0a74854" y="153.792919"/>
     <use style="fill:#ffa500;stroke:#ffa500;" x="248.032264" xlink:href="#me7c0a74854" y="143.056989"/>
     <use style="fill:#ffa500;stroke:#ffa500;" x="255.902678" xlink:href="#me7c0a74854" y="133.327165"/>
     <use style="fill:#ffa500;stroke:#ffa500;" x="263.773091" xlink:href="#me7c0a74854" y="124.578604"/>
     <use style="fill:#ffa500;stroke:#ffa500;" x="271.643504" xlink:href="#me7c0a74854" y="116.786463"/>
     <use style="fill:#ffa500;stroke:#ffa500;" x="279.513917" xlink:href="#me7c0a74854" y="109.925902"/>
     <use style="fill:#ffa500;stroke:#ffa500;" x="287.384331" xlink:href="#me7c0a74854" y="103.972077"/>
     <use style="fill:#ffa500;stroke:#ffa500;" x="295.254744" xlink:href="#me7c0a74854" y="98.900147"/>
     <use style="fill:#ffa500;stroke:#ffa500;" x="303.125157" xlink:href="#me7c0a74854" y="94.68527"/>
     <use style="fill:#ffa500;stroke:#ffa500;" x="310.99557" xlink:href="#me7c0a74854" y="91.302604"/>
     <use style="fill:#ffa500;stroke:#ffa500;" x="318.865983" xlink:href="#me7c0a74854" y="88.727305"/>
     <use style="fill:#ffa500;stroke:#ffa500;" x="326.736397" xlink:href="#me7c0a74854" y="86.934533"/>
     <use style="fill:#ffa500;stroke:#ffa500;" x="334.60681" xlink:href="#me7c0a74854" y="85.899446"/>
     <use style="fill:#ffa500;stroke:#ffa500;" x="342.477223" xlink:href="#me7c0a74854" y="85.5972"/>
     <use style="fill:#ffa500;stroke:#ffa500;" x="350.347636" xlink:href="#me7c0a74854" y="86.002954"/>
     <use style="fill:#ffa500;stroke:#ffa500;" x="358.21805" xlink:href="#me7c0a74854" y="87.091867"/>
     <use style="fill:#ffa500;stroke:#ffa500;" x="366.088463" xlink:href="#me7c0a74854" y="88.839095"/>
     <use style="fill:#ffa500;stroke:#ffa500;" x="373.958876" xlink:href="#me7c0a74854" y="91.219796"/>
     <use style="fill:#ffa500;stroke:#ffa500;" x="381.829289" xlink:href="#me7c0a74854" y="94.20913"/>
     <use style="fill:#ffa500;stroke:#ffa500;" x="389.699702" xlink:href="#me7c0a74854" y="97.782253"/>
     <use style="fill:#ffa500;stroke:#ffa500;" x="397.570116" xlink:href="#me7c0a74854" y="101.914323"/>
     <use style="fill:#ffa500;stroke:#ffa500;" x="405.440529" xlink:href="#me7c0a74854" y="106.580498"/>
     <use style="fill:#ffa500;stroke:#ffa500;" x="413.310942" xlink:href="#me7c0a74854" y="111.755937"/>
     <use style="fill:#ffa500;stroke:#ffa500;" x="421.181355" xlink:href="#me7c0a74854" y="117.415796"/>
     <use style="fill:#ffa500;stroke:#ffa500;" x="429.051769" xlink:href="#me7c0a74854" y="123.535235"/>
     <use style="fill:#ffa500;stroke:#ffa500;" x="436.922182" xlink:href="#me7c0a74854" y="130.089411"/>
     <use style="fill:#ffa500;stroke:#ffa500;" x="444.792595" xlink:href="#me7c0a74854" y="137.053481"/>
     <use style="fill:#ffa500;stroke:#ffa500;" x="452.663008" xlink:href="#me7c0a74854" y="144.402604"/>
     <use style="fill:#ffa500;stroke:#ffa500;" x="460.533421" xlink:href="#me7c0a74854" y="152.111937"/>
     <use style="fill:#ffa500;stroke:#ffa500;" x="468.403835" xlink:href="#me7c0a74854" y="160.156639"/>
     <use style="fill:#ffa500;stroke:#ffa500;" x="476.274248" xlink:href="#me7c0a74854" y="168.511867"/>
     <use style="fill:#ffa500;stroke:#ffa500;" x="484.144661" xlink:href="#me7c0a74854" y="177.152779"/>
     <use style="fill:#ffa500;stroke:#ffa500;" x="492.015074" xlink:href="#me7c0a74854" y="186.054533"/>
     <use style="fill:#ffa500;stroke:#ffa500;" x="499.885488" xlink:href="#me7c0a74854" y="195.192288"/>
     <use style="fill:#ffa500;stroke:#ffa500;" x="507.755901" xlink:href="#me7c0a74854" y="204.5412"/>
     <use style="fill:#ffa500;stroke:#ffa500;" x="515.626314" xlink:href="#me7c0a74854" y="214.076428"/>
     <use style="fill:#ffa500;stroke:#ffa500;" x="523.496727" xlink:href="#me7c0a74854" y="223.77313"/>
     <use style="fill:#ffa500;stroke:#ffa500;" x="531.36714" xlink:href="#me7c0a74854" y="233.606463"/>
     <use style="fill:#ffa500;stroke:#ffa500;" x="539.237554" xlink:href="#me7c0a74854" y="243.551586"/>
     <use style="fill:#ffa500;stroke:#ffa500;" x="547.107967" xlink:href="#me7c0a74854" y="253.583656"/>
     <use style="fill:#ffa500;stroke:#ffa500;" x="554.97838" xlink:href="#me7c0a74854" y="263.677832"/>
     <use style="fill:#ffa500;stroke:#ffa500;" x="562.848793" xlink:href="#me7c0a74854" y="273.80927"/>
     <use style="fill:#ffa500;stroke:#ffa500;" x="570.719207" xlink:href="#me7c0a74854" y="283.95313"/>
     <use style="fill:#ffa500;stroke:#ffa500;" x="578.58962" xlink:href="#me7c0a74854" y="294.084568"/>
     <use style="fill:#ffa500;stroke:#ffa500;" x="586.460033" xlink:href="#me7c0a74854" y="304.178744"/>
     <use style="fill:#ffa500;stroke:#ffa500;" x="594.330446" xlink:href="#me7c0a74854" y="314.210814"/>
     <use style="fill:#ffa500;stroke:#ffa500;" x="602.20086" xlink:href="#me7c0a74854" y="324.155937"/>
     <use style="fill:#ffa500;stroke:#ffa500;" x="610.071273" xlink:href="#me7c0a74854" y="333.98927"/>
     <use style="fill:#ffa500;stroke:#ffa500;" x="617.941686" xlink:href="#me7c0a74854" y="343.685972"/>
     <use style="fill:#ffa500;stroke:#ffa500;" x="625.812099" xlink:href="#me7c0a74854" y="353.2212"/>
     <use style="fill:#ffa500;stroke:#ffa500;" x="633.682512" xlink:href="#me7c0a74854" y="362.570112"/>
     <use style="fill:#ffa500;stroke:#ffa500;" x="641.552926" xlink:href="#me7c0a74854" y="371.707867"/>
     <use style="fill:#ffa500;stroke:#ffa500;" x="649.423339" xlink:href="#me7c0a74854" y="380.609621"/>
     <use style="fill:#ffa500;stroke:#ffa500;" x="657.293752" xlink:href="#me7c0a74854" y="389.250533"/>
     <use style="fill:#ffa500;stroke:#ffa500;" x="665.164165" xlink:href="#me7c0a74854" y="397.605761"/>
     <use style="fill:#ffa500;stroke:#ffa500;" x="673.034579" xlink:href="#me7c0a74854" y="405.650463"/>
     <use style="fill:#ffa500;stroke:#ffa500;" x="680.904992" xlink:href="#me7c0a74854" y="413.359796"/>
     <use style="fill:#ffa500;stroke:#ffa500;" x="688.775405" xlink:href="#me7c0a74854" y="420.708919"/>
     <use style="fill:#ffa500;stroke:#ffa500;" x="696.645818" xlink:href="#me7c0a74854" y="427.672989"/>
     <use style="fill:#ffa500;stroke:#ffa500;" x="704.516231" xlink:href="#me7c0a74854" y="434.227165"/>
     <use style="fill:#ffa500;stroke:#ffa500;" x="712.386645" xlink:href="#me7c0a74854" y="440.346604"/>
     <use style="fill:#ffa500;stroke:#ffa500;" x="720.257058" xlink:href="#me7c0a74854" y="446.006463"/>
     <use style="fill:#ffa500;stroke:#ffa500;" x="728.127471" xlink:href="#me7c0a74854" y="451.181902"/>
     <use style="fill:#ffa500;stroke:#ffa500;" x="735.997884" xlink:href="#me7c0a74854" y="455.848077"/>
     <use style="fill:#ffa500;stroke:#ffa500;" x="743.868298" xlink:href="#me7c0a74854" y="459.980147"/>
     <use style="fill:#ffa500;stroke:#ffa500;" x="751.738711" xlink:href="#me7c0a74854" y="463.55327"/>
     <use style="fill:#ffa500;stroke:#ffa500;" x="759.609124" xlink:href="#me7c0a74854" y="466.542604"/>
     <use style="fill:#ffa500;stroke:#ffa500;" x="767.479537" xlink:href="#me7c0a74854" y="468.923305"/>
     <use style="fill:#ffa500;stroke:#ffa500;" x="775.34995" xlink:href="#me7c0a74854" y="470.670533"/>
     <use style="fill:#ffa500;stroke:#ffa500;" x="783.220364" xlink:href="#me7c0a74854" y="471.759446"/>
     <use style="fill:#ffa500;stroke:#ffa500;" x="791.090777" xlink:href="#me7c0a74854" y="472.1652"/>
     <use style="fill:#ffa500;stroke:#ffa500;" x="798.96119" xlink:href="#me7c0a74854" y="471.862954"/>
     <use style="fill:#ffa500;stroke:#ffa500;" x="806.831603" xlink:href="#me7c0a74854" y="470.827867"/>
     <use style="fill:#ffa500;stroke:#ffa500;" x="814.702017" xlink:href="#me7c0a74854" y="469.035095"/>
     <use style="fill:#ffa500;stroke:#ffa500;" x="822.57243" xlink:href="#me7c0a74854" y="466.459796"/>
     <use style="fill:#ffa500;stroke:#ffa500;" x="830.442843" xlink:href="#me7c0a74854" y="463.07713"/>
     <use style="fill:#ffa500;stroke:#ffa500;" x="838.313256" xlink:href="#me7c0a74854" y="458.862253"/>
     <use style="fill:#ffa500;stroke:#ffa500;" x="846.183669" xlink:href="#me7c0a74854" y="453.790323"/>
     <use style="fill:#ffa500;stroke:#ffa500;" x="854.054083" xlink:href="#me7c0a74854" y="447.836498"/>
     <use style="fill:#ffa500;stroke:#ffa500;" x="861.924496" xlink:href="#me7c0a74854" y="440.975937"/>
     <use style="fill:#ffa500;stroke:#ffa500;" x="869.794909" xlink:href="#me7c0a74854" y="433.183796"/>
     <use style="fill:#ffa500;stroke:#ffa500;" x="877.665322" xlink:href="#me7c0a74854" y="424.435235"/>
     <use style="fill:#ffa500;stroke:#ffa500;" x="885.535736" xlink:href="#me7c0a74854" y="414.705411"/>
     <use style="fill:#ffa500;stroke:#ffa500;" x="893.406149" xlink:href="#me7c0a74854" y="403.969481"/>
     <use style="fill:#ffa500;stroke:#ffa500;" x="901.276562" xlink:href="#me7c0a74854" y="392.202604"/>
     <use style="fill:#ffa500;stroke:#ffa500;" x="909.146975" xlink:href="#me7c0a74854" y="379.379937"/>
     <use style="fill:#ffa500;stroke:#ffa500;" x="917.017388" xlink:href="#me7c0a74854" y="365.476639"/>
     <use style="fill:#ffa500;stroke:#ffa500;" x="924.887802" xlink:href="#me7c0a74854" y="350.467867"/>
     <use style="fill:#ffa500;stroke:#ffa500;" x="932.758215" xlink:href="#me7c0a74854" y="334.328779"/>
     <use style="fill:#ffa500;stroke:#ffa500;" x="940.628628" xlink:href="#me7c0a74854" y="317.034533"/>
     <use style="fill:#ffa500;stroke:#ffa500;" x="948.499041" xlink:href="#me7c0a74854" y="298.560288"/>
     <use style="fill:#ffa500;stroke:#ffa500;" x="956.369455" xlink:href="#me7c0a74854" y="278.8812"/>
    </g>
   </g>
   <g id="patch_3">
    <path d="M 138.24 491.4936 
L 138.24 66.2688 
" style="fill:none;stroke:#000000;stroke-linecap:square;stroke-linejoin:miter;stroke-width:0.8;"/>
   </g>
   <g id="patch_4">
    <path d="M 995.328 491.4936 
L 995.328 66.2688 
" style="fill:none;stroke:#000000;stroke-linecap:square;stroke-linejoin:miter;stroke-width:0.8;"/>
   </g>
   <g id="patch_5">
    <path d="M 138.24 491.4936 
L 995.328 491.4936 
" style="fill:none;stroke:#000000;stroke-linecap:square;stroke-linejoin:miter;stroke-width:0.8;"/>
   </g>
   <g id="patch_6">
    <path d="M 138.24 66.2688 
L 995.328 66.2688 
" style="fill:none;stroke:#000000;stroke-linecap:square;stroke-linejoin:miter;stroke-width:0.8;"/>
   </g>
   <g id="text_13">
    <!--  1.00 -->
    <defs>
     <path id="DejaVuSans-32"/>
    </defs>
    <g transform="translate(562.848793 220.044893)scale(0.1 -0.1)">
     <use xlink:href="#DejaVuSans-32"/>
     <use x="31.787109" xlink:href="#DejaVuSans-49"/>
     <use x="95.410156" xlink:href="#DejaVuSans-46"/>
     <use x="127.197266" xlink:href="#DejaVuSans-48"/>
     <use x="190.820312" xlink:href="#DejaVuSans-48"/>
    </g>
   </g>
   <g id="text_14">
    <!--  0.50 -->
    <defs>
     <path d="M 10.796875 72.90625 
L 49.515625 72.90625 
L 49.515625 64.59375 
L 19.828125 64.59375 
L 19.828125 46.734375 
Q 21.96875 47.46875 24.109375 47.828125 
Q 26.265625 48.1875 28.421875 48.1875 
Q 40.625 48.1875 47.75 41.5 
Q 54.890625 34.8125 54.890625 23.390625 
Q 54.890625 11.625 47.5625 5.09375 
Q 40.234375 -1.421875 26.90625 -1.421875 
Q 22.3125 -1.421875 17.546875 -0.640625 
Q 12.796875 0.140625 7.71875 1.703125 
L 7.71875 11.625 
Q 12.109375 9.234375 16.796875 8.0625 
Q 21.484375 6.890625 26.703125 6.890625 
Q 35.15625 6.890625 40.078125 11.328125 
Q 45.015625 15.765625 45.015625 23.390625 
Q 45.015625 31 40.078125 35.4375 
Q 35.15625 39.890625 26.703125 39.890625 
Q 22.75 39.890625 18.8125 39.015625 
Q 14.890625 38.140625 10.796875 36.28125 
z
" id="DejaVuSans-53"/>
    </defs>
    <g transform="translate(956.369455 249.457042)scale(0.1 -0.1)">
     <use xlink:href="#DejaVuSans-32"/>
     <use x="31.787109" xlink:href="#DejaVuSans-48"/>
     <use x="95.410156" xlink:href="#DejaVuSans-46"/>
     <use x="127.197266" xlink:href="#DejaVuSans-53"/>
     <use x="190.820312" xlink:href="#DejaVuSans-48"/>
    </g>
   </g>
   <g id="text_15">
    <!--  0.00 -->
    <g transform="translate(177.198545 278.8812)scale(0.1 -0.1)">
     <use xlink:href="#DejaVuSans-32"/>
     <use x="31.787109" xlink:href="#DejaVuSans-48"/>
     <use x="95.410156" xlink:href="#DejaVuSans-46"/>
     <use x="127.197266" xlink:href="#DejaVuSans-48"/>
     <use x="190.820312" xlink:href="#DejaVuSans-48"/>
    </g>
   </g>
   <g id="text_16">
    <!--  0.23 -->
    <g transform="translate(956.369455 265.088626)scale(0.1 -0.1)">
     <use xlink:href="#DejaVuSans-32"/>
     <use x="31.787109" xlink:href="#DejaVuSans-48"/>
     <use x="95.410156" xlink:href="#DejaVuSans-46"/>
     <use x="127.197266" xlink:href="#DejaVuSans-50"/>
     <use x="190.820312" xlink:href="#DejaVuSans-51"/>
    </g>
   </g>
   <g id="text_17">
    <!--  0.00 -->
    <g transform="translate(177.198545 278.8812)scale(0.1 -0.1)">
     <use xlink:href="#DejaVuSans-32"/>
     <use x="31.787109" xlink:href="#DejaVuSans-48"/>
     <use x="95.410156" xlink:href="#DejaVuSans-46"/>
     <use x="127.197266" xlink:href="#DejaVuSans-48"/>
     <use x="190.820312" xlink:href="#DejaVuSans-48"/>
    </g>
   </g>
   <g id="text_18">
    <!--  3.28 -->
    <g transform="translate(342.477223 85.5972)scale(0.1 -0.1)">
     <use xlink:href="#DejaVuSans-32"/>
     <use x="31.787109" xlink:href="#DejaVuSans-51"/>
     <use x="95.410156" xlink:href="#DejaVuSans-46"/>
     <use x="127.197266" xlink:href="#DejaVuSans-50"/>
     <use x="190.820312" xlink:href="#DejaVuSans-56"/>
    </g>
   </g>
   <g id="text_19">
    <!--  -3.28 -->
    <defs>
     <path d="M 4.890625 31.390625 
L 31.203125 31.390625 
L 31.203125 23.390625 
L 4.890625 23.390625 
z
" id="DejaVuSans-45"/>
    </defs>
    <g transform="translate(791.090777 472.1652)scale(0.1 -0.1)">
     <use xlink:href="#DejaVuSans-32"/>
     <use x="31.787109" xlink:href="#DejaVuSans-45"/>
     <use x="67.871094" xlink:href="#DejaVuSans-51"/>
     <use x="131.494141" xlink:href="#DejaVuSans-46"/>
     <use x="163.28125" xlink:href="#DejaVuSans-50"/>
     <use x="226.904297" xlink:href="#DejaVuSans-56"/>
    </g>
   </g>
   <g id="legend_1">
    <g id="patch_7">
     <path d="M 950.199875 132.9813 
L 988.328 132.9813 
Q 990.328 132.9813 990.328 130.9813 
L 990.328 73.2688 
Q 990.328 71.2688 988.328 71.2688 
L 950.199875 71.2688 
Q 948.199875 71.2688 948.199875 73.2688 
L 948.199875 130.9813 
Q 948.199875 132.9813 950.199875 132.9813 
z
" style="fill:#ffffff;opacity:0.8;stroke:#cccccc;stroke-linejoin:miter;"/>
    </g>
    <g id="line2d_29">
     <path d="M 952.199875 79.367238 
L 972.199875 79.367238 
" style="fill:none;stroke:#ff0000;stroke-linecap:square;stroke-width:1.5;"/>
    </g>
    <g id="line2d_30">
     <g>
      <use style="fill:#ff0000;stroke:#ff0000;" x="962.199875" xlink:href="#m66b2edadc3" y="79.367238"/>
     </g>
    </g>
    <g id="text_20">
     <!-- s -->
     <defs>
      <path d="M 44.28125 53.078125 
L 44.28125 44.578125 
Q 40.484375 46.53125 36.375 47.5 
Q 32.28125 48.484375 27.875 48.484375 
Q 21.1875 48.484375 17.84375 46.4375 
Q 14.5 44.390625 14.5 40.28125 
Q 14.5 37.15625 16.890625 35.375 
Q 19.28125 33.59375 26.515625 31.984375 
L 29.59375 31.296875 
Q 39.15625 29.25 43.1875 25.515625 
Q 47.21875 21.78125 47.21875 15.09375 
Q 47.21875 7.46875 41.1875 3.015625 
Q 35.15625 -1.421875 24.609375 -1.421875 
Q 20.21875 -1.421875 15.453125 -0.5625 
Q 10.6875 0.296875 5.421875 2 
L 5.421875 11.28125 
Q 10.40625 8.6875 15.234375 7.390625 
Q 20.0625 6.109375 24.8125 6.109375 
Q 31.15625 6.109375 34.5625 8.28125 
Q 37.984375 10.453125 37.984375 14.40625 
Q 37.984375 18.0625 35.515625 20.015625 
Q 33.0625 21.96875 24.703125 23.78125 
L 21.578125 24.515625 
Q 13.234375 26.265625 9.515625 29.90625 
Q 5.8125 33.546875 5.8125 39.890625 
Q 5.8125 47.609375 11.28125 51.796875 
Q 16.75 56 26.8125 56 
Q 31.78125 56 36.171875 55.265625 
Q 40.578125 54.546875 44.28125 53.078125 
z
" id="DejaVuSans-115"/>
     </defs>
     <g transform="translate(980.199875 82.867238)scale(0.1 -0.1)">
      <use xlink:href="#DejaVuSans-115"/>
     </g>
    </g>
    <g id="line2d_31">
     <path d="M 952.199875 94.045363 
L 972.199875 94.045363 
" style="fill:none;stroke:#0000ff;stroke-linecap:square;stroke-width:1.5;"/>
    </g>
    <g id="line2d_32">
     <g>
      <use style="fill:#0000ff;stroke:#0000ff;" x="962.199875" xlink:href="#m180d60d634" y="94.045363"/>
     </g>
    </g>
    <g id="text_21">
     <!-- v -->
     <defs>
      <path d="M 2.984375 54.6875 
L 12.5 54.6875 
L 29.59375 8.796875 
L 46.6875 54.6875 
L 56.203125 54.6875 
L 35.6875 0 
L 23.484375 0 
z
" id="DejaVuSans-118"/>
     </defs>
     <g transform="translate(980.199875 97.545363)scale(0.1 -0.1)">
      <use xlink:href="#DejaVuSans-118"/>
     </g>
    </g>
    <g id="line2d_33">
     <path d="M 952.199875 108.723488 
L 972.199875 108.723488 
" style="fill:none;stroke:#008000;stroke-linecap:square;stroke-width:1.5;"/>
    </g>
    <g id="line2d_34">
     <g>
      <use style="fill:#008000;stroke:#008000;" x="962.199875" xlink:href="#maef6d62be3" y="108.723488"/>
     </g>
    </g>
    <g id="text_22">
     <!-- a -->
     <defs>
      <path d="M 34.28125 27.484375 
Q 23.390625 27.484375 19.1875 25 
Q 14.984375 22.515625 14.984375 16.5 
Q 14.984375 11.71875 18.140625 8.90625 
Q 21.296875 6.109375 26.703125 6.109375 
Q 34.1875 6.109375 38.703125 11.40625 
Q 43.21875 16.703125 43.21875 25.484375 
L 43.21875 27.484375 
z
M 52.203125 31.203125 
L 52.203125 0 
L 43.21875 0 
L 43.21875 8.296875 
Q 40.140625 3.328125 35.546875 0.953125 
Q 30.953125 -1.421875 24.3125 -1.421875 
Q 15.921875 -1.421875 10.953125 3.296875 
Q 6 8.015625 6 15.921875 
Q 6 25.140625 12.171875 29.828125 
Q 18.359375 34.515625 30.609375 34.515625 
L 43.21875 34.515625 
L 43.21875 35.40625 
Q 43.21875 41.609375 39.140625 45 
Q 35.0625 48.390625 27.6875 48.390625 
Q 23 48.390625 18.546875 47.265625 
Q 14.109375 46.140625 10.015625 43.890625 
L 10.015625 52.203125 
Q 14.9375 54.109375 19.578125 55.046875 
Q 24.21875 56 28.609375 56 
Q 40.484375 56 46.34375 49.84375 
Q 52.203125 43.703125 52.203125 31.203125 
z
" id="DejaVuSans-97"/>
     </defs>
     <g transform="translate(980.199875 112.223488)scale(0.1 -0.1)">
      <use xlink:href="#DejaVuSans-97"/>
     </g>
    </g>
    <g id="line2d_35">
     <path d="M 952.199875 123.401613 
L 972.199875 123.401613 
" style="fill:none;stroke:#ffa500;stroke-linecap:square;stroke-width:1.5;"/>
    </g>
    <g id="line2d_36">
     <g>
      <use style="fill:#ffa500;stroke:#ffa500;" x="962.199875" xlink:href="#me7c0a74854" y="123.401613"/>
     </g>
    </g>
    <g id="text_23">
     <!-- j -->
     <defs>
      <path d="M 9.421875 54.6875 
L 18.40625 54.6875 
L 18.40625 -0.984375 
Q 18.40625 -11.421875 14.421875 -16.109375 
Q 10.453125 -20.796875 1.609375 -20.796875 
L -1.8125 -20.796875 
L -1.8125 -13.1875 
L 0.59375 -13.1875 
Q 5.71875 -13.1875 7.5625 -10.8125 
Q 9.421875 -8.453125 9.421875 -0.984375 
z
M 9.421875 75.984375 
L 18.40625 75.984375 
L 18.40625 64.59375 
L 9.421875 64.59375 
z
" id="DejaVuSans-106"/>
     </defs>
     <g transform="translate(980.199875 126.901613)scale(0.1 -0.1)">
      <use xlink:href="#DejaVuSans-106"/>
     </g>
    </g>
   </g>
  </g>
 </g>
 <defs>
  <clipPath id="p048cd4c463">
   <rect height="425.2248" width="857.088" x="138.24" y="66.2688"/>
  </clipPath>
 </defs>
</svg>
